<svg width="85" height="85" viewBox="0 0 85 85" fill="none" xmlns="http://www.w3.org/2000/svg">
<path d="M12.3047 14.0625H1.75781C1.29551 14.0625 0.841992 13.8744 0.515039 13.5475C0.188086 13.2205 0 12.767 0 12.3047V1.75781C0 1.29551 0.188086 0.841992 0.515039 0.515039C0.841992 0.188086 1.29551 0 1.75781 0H12.3047C12.767 0 13.2205 0.188086 13.5475 0.515039C13.8744 0.841992 14.0625 1.29551 14.0625 1.75781V12.3047C14.0625 12.767 13.8744 13.2205 13.5475 13.5475C13.2205 13.8744 12.767 14.0625 12.3047 14.0625ZM3.51562 10.5469H10.5469V3.51562H3.51562V10.5469Z" fill="white"/>
<path d="M82.6172 14.0625H72.0703C71.608 14.0625 71.1545 13.8744 70.8275 13.5475C70.5006 13.2205 70.3125 12.767 70.3125 12.3047V1.75781C70.3125 1.29551 70.5004 0.841992 70.8275 0.515039C71.1545 0.188086 71.608 0 72.0703 0H82.6172C83.0795 0 83.533 0.188086 83.8598 0.515039C84.1869 0.841992 84.375 1.29551 84.375 1.75781V12.3047C84.375 12.767 84.1869 13.2205 83.8598 13.5475C83.533 13.8744 83.0795 14.0625 82.6172 14.0625ZM73.8281 10.5469H80.8594V3.51562H73.8281V10.5469Z" fill="white"/>
<path d="M7.42679 38.6716C7.3389 38.6716 7.25101 38.6646 7.16312 38.6523C6.69906 38.582 6.28949 38.3359 6.01176 37.9579C5.73226 37.58 5.61625 37.1159 5.68656 36.6519C6.27718 32.7284 7.49183 28.9492 9.29535 25.4177C11.0549 21.9706 13.3401 18.8312 16.0858 16.0855C18.8315 13.3398 21.9709 11.0546 25.418 9.29505C28.9495 7.49153 32.7287 6.27688 36.6522 5.68626C37.1549 5.61067 37.67 5.76009 38.0549 6.0888C38.3766 6.36302 38.5893 6.74446 38.6526 7.16282C38.7967 8.12259 38.134 9.01907 37.176 9.16321C22.8358 11.3165 11.3168 22.8355 9.16351 37.1757C9.10023 37.5941 8.88929 37.9755 8.56761 38.2497C8.24769 38.5222 7.8434 38.6716 7.42679 38.6716Z" fill="white"/>
<path d="M76.9481 38.6716C76.5315 38.6716 76.1272 38.5222 75.8073 38.2497C75.4856 37.9755 75.2747 37.5941 75.2114 37.1757C73.0581 22.8355 61.5391 11.3165 47.1989 9.16321C46.2409 9.01907 45.5782 8.12259 45.7223 7.16282C45.7856 6.74446 45.9967 6.36302 46.3184 6.0888C46.7051 5.76009 47.2202 5.61067 47.7229 5.68626C51.6462 6.27688 55.4255 7.49153 58.9569 9.29505C62.404 11.0546 65.5436 13.3398 68.2893 16.0855C71.0348 18.8312 73.32 21.9706 75.0797 25.4177C76.8833 28.9492 78.0961 32.7267 78.6883 36.6501V36.6519C78.8325 37.6116 78.17 38.5081 77.212 38.6523C77.1239 38.6663 77.036 38.6716 76.9481 38.6716Z" fill="white"/>
<path d="M12.3047 49.2188H1.75781C1.29551 49.2188 0.841992 49.0307 0.515039 48.7035C0.188086 48.3768 0 47.9232 0 47.4609V36.9141C0 36.4518 0.188086 35.9982 0.515039 35.6713C0.841992 35.3443 1.29551 35.1562 1.75781 35.1562H12.3047C12.767 35.1562 13.2205 35.3443 13.5475 35.6713C13.8744 35.9982 14.0625 36.4518 14.0625 36.9141V47.4609C14.0625 47.9232 13.8744 48.3768 13.5475 48.7035C13.2205 49.0307 12.767 49.2188 12.3047 49.2188ZM3.51562 45.7031H10.5469V38.6719H3.51562V45.7031Z" fill="white"/>
<path d="M82.6172 49.2188H72.0703C71.608 49.2188 71.1545 49.0307 70.8275 48.7035C70.5006 48.3768 70.3125 47.9232 70.3125 47.4609V36.9141C70.3125 36.4518 70.5004 35.9982 70.8275 35.6713C71.1545 35.3443 71.608 35.1562 72.0703 35.1562H82.6172C83.0795 35.1562 83.533 35.3443 83.8598 35.6713C84.1867 35.9982 84.375 36.4518 84.375 36.9141V47.4609C84.375 47.9232 84.1869 48.3768 83.8598 48.7035C83.533 49.0307 83.0795 49.2188 82.6172 49.2188ZM73.8281 45.7031H80.8594V38.6719H73.8281V45.7031Z" fill="white"/>
<path d="M47.4609 14.0625H36.9141C36.4518 14.0625 35.9982 13.8744 35.6713 13.5475C35.3443 13.2205 35.1562 12.767 35.1562 12.3047V1.75781C35.1562 1.29551 35.3443 0.841992 35.6713 0.515039C35.9982 0.188086 36.4518 0 36.9141 0H47.4609C47.9232 0 48.3768 0.188086 48.7035 0.515039C49.0307 0.841992 49.2188 1.29551 49.2188 1.75781V12.3047C49.2188 12.767 49.0307 13.2205 48.7035 13.5475C48.3768 13.8744 47.9232 14.0625 47.4609 14.0625ZM38.6719 10.5469H45.7031V3.51562H38.6719V10.5469Z" fill="white"/>
<path d="M36.9141 8.78906H12.3047C11.3361 8.78906 10.5469 7.9998 10.5469 7.03125C10.5469 6.0627 11.3361 5.27344 12.3047 5.27344H36.9141C37.8826 5.27344 38.6719 6.0627 38.6719 7.03125C38.6719 7.9998 37.8826 8.78906 36.9141 8.78906Z" fill="white"/>
<path d="M72.0703 8.78906H47.4609C46.4924 8.78906 45.7031 7.9998 45.7031 7.03125C45.7031 6.0627 46.4924 5.27344 47.4609 5.27344H72.0703C73.0389 5.27344 73.8281 6.0627 73.8281 7.03125C73.8281 7.9998 73.0389 8.78906 72.0703 8.78906Z" fill="white"/>
<path d="M42.1875 43.9453C41.2189 43.9453 40.4297 43.1561 40.4297 42.1875V17.5781C40.4297 16.6096 41.2189 15.8203 42.1875 15.8203C43.1561 15.8203 43.9453 16.6096 43.9453 17.5781V42.1875C43.9453 43.1561 43.1561 43.9453 42.1875 43.9453Z" fill="white"/>
<path d="M42.1875 54.4922C40.3084 54.4922 38.5436 53.7609 37.2164 52.432C35.8875 51.1047 35.1562 49.3399 35.1562 47.4609C35.1562 45.5818 35.8875 43.817 37.2164 42.4898C38.5436 41.1609 40.3084 40.4297 42.1875 40.4297C44.0664 40.4297 45.8313 41.1609 47.1586 42.4898C48.4875 43.817 49.2188 45.5818 49.2188 47.4609C49.2188 49.3399 48.4875 51.1047 47.1586 52.432C45.8313 53.7609 44.0664 54.4922 42.1875 54.4922ZM42.1875 43.9453C40.2521 43.9488 38.6754 45.5256 38.6719 47.4609C38.6754 49.3963 40.2521 50.9729 42.1875 50.9766C44.1229 50.9729 45.6994 49.3963 45.7031 47.4609C45.6994 45.5256 44.1229 43.9488 42.1875 43.9453Z" fill="white"/>
<path d="M53.0281 75.5859H31.3472C30.8304 75.5859 30.3418 75.3592 30.006 74.9637C29.672 74.5682 29.5279 74.0496 29.614 73.5397L31.5318 62.0297L31.0906 61.4987C30.8287 61.1859 30.6845 60.7885 30.6828 60.3824C30.6793 59.8551 30.9113 59.3594 31.3156 59.0238C31.6303 58.7602 32.0293 58.616 32.4388 58.616C32.9627 58.616 33.4566 58.8463 33.7906 59.2488L34.7486 60.3984C35.0773 60.7922 35.2162 61.3072 35.1318 61.8117L33.4232 72.0703H50.9521L49.242 61.8117C49.1593 61.3072 49.2982 60.7922 49.6267 60.3984L57.7304 50.6725L44.5359 19.3359H39.8391L28.3043 46.7314C28.0283 47.3854 27.392 47.8072 26.6836 47.8072C26.448 47.8072 26.2195 47.7615 26.0016 47.6701C25.1086 47.2939 24.6867 46.2604 25.0646 45.3674L37.0512 16.8961C37.3271 16.2422 37.9635 15.8203 38.6719 15.8203H45.7031C46.4115 15.8203 47.0477 16.2422 47.3238 16.8961L61.3863 50.2945C61.6412 50.9027 61.5375 51.5951 61.1156 52.1014L52.8434 62.0295L54.7611 73.5395C54.8471 74.0493 54.7031 74.568 54.3691 74.9635C54.0336 75.3592 53.5447 75.5859 53.0281 75.5859ZM26.8138 55.3799C26.29 55.3799 25.7978 55.1479 25.4638 54.7471C24.8433 54.0018 24.9435 52.8906 25.6888 52.2701C26.0035 52.0084 26.4025 51.8641 26.8121 51.8641C27.3359 51.8641 27.8299 52.0944 28.1638 52.4969C28.4644 52.8574 28.6068 53.3127 28.5646 53.7803C28.5224 54.2477 28.2992 54.6713 27.9388 54.9719C27.6242 55.234 27.2234 55.3799 26.8138 55.3799Z" fill="white"/>
<path d="M54.4922 84.375H29.8828C29.366 84.375 28.8756 84.1482 28.5416 83.7527C28.2058 83.3572 28.0635 82.8387 28.1496 82.3287L29.6138 73.5397C29.7562 72.6871 30.4857 72.0703 31.3471 72.0703H53.0279C53.891 72.0703 54.6187 72.6873 54.7611 73.5397L56.2252 82.3287C56.3113 82.8385 56.1691 83.3572 55.8334 83.7527C55.4992 84.1482 55.0088 84.375 54.4922 84.375ZM31.957 80.8594H52.418L51.5371 75.5859H32.8377L31.957 80.8594Z" fill="white"/>
</svg>
