<svg width="1043" height="261" viewBox="0 0 1043 261" fill="none" xmlns="http://www.w3.org/2000/svg">
<path d="M335.523 17.0527C334.388 17.0527 333.49 16.7116 332.828 16.0295C332.166 15.3406 331.835 14.4018 331.835 13.2132V13.203C331.835 12.0144 332.166 11.079 332.828 10.3968C333.49 9.70794 334.388 9.36349 335.523 9.36349C336.158 9.36349 336.722 9.48506 337.215 9.7282C337.714 9.97133 338.116 10.3056 338.42 10.7311C338.731 11.1566 338.906 11.6429 338.947 12.19V12.2811H337.194V12.2305C337.127 11.859 336.941 11.5517 336.637 11.3086C336.333 11.0654 335.962 10.9439 335.523 10.9439C334.956 10.9439 334.506 11.1431 334.175 11.5416C333.851 11.9401 333.689 12.4939 333.689 13.203V13.2132C333.689 13.9088 333.851 14.4592 334.175 14.8645C334.506 15.2697 334.959 15.4723 335.533 15.4723C335.972 15.4723 336.337 15.3575 336.627 15.1279C336.924 14.8982 337.11 14.5977 337.184 14.2262L337.194 14.1654H338.947V14.2465C338.9 14.8003 338.728 15.2866 338.43 15.7053C338.133 16.124 337.735 16.455 337.235 16.6981C336.742 16.9345 336.171 17.0527 335.523 17.0527ZM341.895 13.1726C341.895 12.2676 341.73 11.4234 341.399 10.64C341.068 9.85652 340.608 9.17101 340.021 8.58343C339.433 7.99585 338.748 7.53659 337.964 7.20566C337.181 6.87472 336.337 6.70925 335.432 6.70925H335.361C334.456 6.70925 333.612 6.87472 332.828 7.20566C332.045 7.53659 331.356 7.99585 330.761 8.58343C330.174 9.17101 329.715 9.85652 329.384 10.64C329.059 11.4234 328.897 12.2676 328.897 13.1726V13.2435C328.897 14.1486 329.059 14.9928 329.384 15.7762C329.715 16.5597 330.174 17.2452 330.761 17.8327C331.356 18.4203 332.045 18.8796 332.828 19.2105C333.612 19.5415 334.456 19.7069 335.361 19.7069H335.432C336.337 19.7069 337.181 19.5415 337.964 19.2105C338.748 18.8796 339.433 18.4203 340.021 17.8327C340.608 17.2452 341.068 16.5597 341.399 15.7762C341.73 14.9928 341.895 14.1486 341.895 13.2435V13.1726ZM343.516 13.1726V13.2435C343.516 14.3782 343.307 15.4352 342.888 16.4144C342.476 17.387 341.902 18.2447 341.166 18.9876C340.429 19.7238 339.572 20.2979 338.592 20.7099C337.62 21.1218 336.566 21.3278 335.432 21.3278H335.361C334.226 21.3278 333.169 21.1218 332.19 20.7099C331.217 20.2979 330.36 19.7238 329.617 18.9876C328.88 18.2447 328.306 17.387 327.894 16.4144C327.482 15.4352 327.276 14.3782 327.276 13.2435V13.1726C327.276 12.038 327.482 10.9844 327.894 10.0119C328.306 9.03256 328.88 8.17482 329.617 7.43866C330.36 6.69574 331.217 6.11829 332.19 5.70631C333.169 5.29433 334.226 5.08834 335.361 5.08834H335.432C336.566 5.08834 337.62 5.29433 338.592 5.70631C339.572 6.11829 340.429 6.69574 341.166 7.43866C341.902 8.17482 342.476 9.03256 342.888 10.0119C343.307 10.9844 343.516 12.038 343.516 13.1726Z" fill="#FFFBEF"/>
<path d="M15.4508 30.841H26.6602L21.2069 14.966H21.0858L15.4508 30.841ZM16.3596 4.30198H26.1148L42.2927 47.5642H32.4163L29.1444 37.9301H12.9665L9.57342 47.5642H0L16.3596 4.30198Z" fill="#FFFBEF"/>
<path d="M115.749 18.8439C115.588 17.7532 115.224 16.7636 114.659 15.8749C114.093 14.9459 113.386 14.138 112.538 13.4513C111.69 12.7646 110.72 12.2394 109.63 11.8759C108.58 11.4719 107.469 11.27 106.297 11.27C104.156 11.27 102.339 11.6941 100.844 12.5424C99.3495 13.3503 98.1376 14.4611 97.2086 15.8749C96.2795 17.2483 95.5928 18.8237 95.1485 20.601C94.7445 22.3784 94.5425 24.2163 94.5425 26.1148C94.5425 27.9326 94.7445 29.7099 95.1485 31.4469C95.5928 33.1434 96.2795 34.6784 97.2086 36.0518C98.1376 37.4252 99.3495 38.5361 100.844 39.3843C102.339 40.1922 104.156 40.5962 106.297 40.5962C109.206 40.5962 111.468 39.7075 113.083 37.9301C114.74 36.1528 115.749 33.8099 116.113 30.9016H125.323C125.081 33.608 124.454 36.0518 123.445 38.2331C122.435 40.4144 121.102 42.2725 119.446 43.8075C117.789 45.3425 115.85 46.5139 113.629 47.3218C111.407 48.1297 108.963 48.5336 106.297 48.5336C102.985 48.5336 99.9958 47.9681 97.3297 46.8371C94.7041 45.6656 92.4824 44.0701 90.6647 42.0504C88.847 40.0306 87.4534 37.6676 86.4839 34.9612C85.5144 32.2144 85.0297 29.2656 85.0297 26.1148C85.0297 22.8833 85.5144 19.8941 86.4839 17.1473C87.4534 14.3601 88.847 11.9365 90.6647 9.87638C92.4824 7.81628 94.7041 6.20051 97.3297 5.02908C99.9958 3.85765 102.985 3.27193 106.297 3.27193C108.68 3.27193 110.922 3.61528 113.023 4.30198C115.164 4.98868 117.062 5.99854 118.718 7.33154C120.415 8.62416 121.809 10.2399 122.899 12.1788C123.99 14.1178 124.677 16.3395 124.959 18.8439H115.749Z" fill="#FFFBEF"/>
<path d="M138.545 31.9316C138.545 33.1838 138.666 34.4158 138.908 35.6277C139.151 36.7991 139.554 37.8696 140.12 38.839C140.726 39.7681 141.514 40.5154 142.483 41.0809C143.452 41.6464 144.664 41.9292 146.118 41.9292C147.573 41.9292 148.785 41.6464 149.754 41.0809C150.764 40.5154 151.552 39.7681 152.117 38.839C152.723 37.8696 153.147 36.7991 153.389 35.6277C153.632 34.4158 153.753 33.1838 153.753 31.9316C153.753 30.6794 153.632 29.4474 153.389 28.2355C153.147 27.0237 152.723 25.9533 152.117 25.0242C151.552 24.0951 150.764 23.3478 149.754 22.7823C148.785 22.1764 147.573 21.8735 146.118 21.8735C144.664 21.8735 143.452 22.1764 142.483 22.7823C141.514 23.3478 140.726 24.0951 140.12 25.0242C139.554 25.9533 139.151 27.0237 138.908 28.2355C138.666 29.4474 138.545 30.6794 138.545 31.9316ZM129.941 31.9316C129.941 29.4272 130.324 27.1651 131.092 25.1454C131.859 23.0853 132.95 21.3483 134.364 19.9345C135.778 18.4803 137.474 17.3695 139.453 16.602C141.433 15.7941 143.654 15.3902 146.118 15.3902C148.583 15.3902 150.804 15.7941 152.784 16.602C154.803 17.3695 156.52 18.4803 157.934 19.9345C159.348 21.3483 160.438 23.0853 161.206 25.1454C161.973 27.1651 162.357 29.4272 162.357 31.9316C162.357 34.436 161.973 36.6981 161.206 38.7178C160.438 40.7375 159.348 42.4745 157.934 43.9287C156.52 45.3425 154.803 46.4331 152.784 47.2006C150.804 47.9681 148.583 48.3518 146.118 48.3518C143.654 48.3518 141.433 47.9681 139.453 47.2006C137.474 46.4331 135.778 45.3425 134.364 43.9287C132.95 42.4745 131.859 40.7375 131.092 38.7178C130.324 36.6981 129.941 34.436 129.941 31.9316Z" fill="#FFFBEF"/>
<path d="M167.951 16.2385H176.131V22.0552H176.252C176.656 21.0858 177.202 20.1971 177.888 19.3892C178.575 18.5409 179.363 17.834 180.251 17.2685C181.14 16.6626 182.089 16.1981 183.099 15.8749C184.109 15.5518 185.159 15.3902 186.25 15.3902C186.815 15.3902 187.441 15.4912 188.128 15.6931V23.6912C187.724 23.6104 187.239 23.5498 186.674 23.5094C186.108 23.4286 185.563 23.3882 185.038 23.3882C183.463 23.3882 182.13 23.6508 181.039 24.1759C179.948 24.701 179.06 25.4281 178.373 26.3572C177.727 27.2459 177.262 28.2961 176.979 29.508C176.697 30.7198 176.555 32.0326 176.555 33.4464V47.5642H167.951V16.2385Z" fill="#FFFBEF"/>
<path d="M202.408 16.2385H208.709V21.9946H202.408V37.506C202.408 38.9602 202.65 39.9297 203.135 40.4144C203.62 40.8991 204.589 41.1415 206.043 41.1415C206.528 41.1415 206.993 41.1213 207.437 41.0809C207.881 41.0405 208.305 40.9799 208.709 40.8991V47.5642C207.982 47.6853 207.174 47.7661 206.286 47.8065C205.397 47.8469 204.528 47.8671 203.68 47.8671C202.347 47.8671 201.075 47.7661 199.863 47.5642C198.692 47.4026 197.641 47.0592 196.712 46.5341C195.824 46.009 195.117 45.2617 194.592 44.2922C194.066 43.3228 193.804 42.0504 193.804 40.475V21.9946H188.593V16.2385H193.804V6.84681H202.408V16.2385Z" fill="#FFFBEF"/>
<path d="M233.889 28.5385C233.485 26.3572 232.758 24.701 231.707 23.57C230.698 22.439 229.142 21.8735 227.042 21.8735C225.669 21.8735 224.517 22.1158 223.588 22.6005C222.7 23.0449 221.972 23.6104 221.407 24.2971C220.882 24.9838 220.498 25.7109 220.256 26.4784C220.054 27.2459 219.933 27.9326 219.892 28.5385H233.889ZM219.892 33.9917C220.013 36.7789 220.72 38.7986 222.013 40.0508C223.305 41.3031 225.164 41.9292 227.587 41.9292C229.324 41.9292 230.819 41.505 232.071 40.6567C233.323 39.7681 234.091 38.839 234.373 37.8696H241.947C240.736 41.6262 238.877 44.3124 236.373 45.9282C233.869 47.544 230.839 48.3518 227.284 48.3518C224.82 48.3518 222.599 47.9681 220.619 47.2006C218.64 46.3927 216.964 45.2617 215.59 43.8075C214.217 42.3533 213.146 40.6164 212.379 38.5966C211.652 36.5769 211.288 34.3553 211.288 31.9316C211.288 29.5887 211.672 27.4075 212.439 25.3877C213.207 23.368 214.298 21.6311 215.711 20.1769C217.125 18.6823 218.802 17.5109 220.74 16.6626C222.72 15.8143 224.901 15.3902 227.284 15.3902C229.95 15.3902 232.273 15.9153 234.252 16.9656C236.232 17.9754 237.847 19.3488 239.1 21.0858C240.392 22.8227 241.321 24.802 241.887 27.0237C242.452 29.2454 242.654 31.5681 242.493 33.9917H219.892Z" fill="#FFFBEF"/>
<path d="M245.657 41.0809L261.956 22.7217H246.869V16.2385H273.286V22.7217L256.987 41.0809H274.438V47.5642H245.657V41.0809Z" fill="#FFFBEF"/>
<path d="M277.077 41.0809L293.376 22.7217H278.288V16.2385H304.706V22.7217L288.407 41.0809H305.857V47.5642H277.077V41.0809Z" fill="#FFFBEF"/>
<path d="M319.282 11.3912H310.678V4.30198H319.282V11.3912ZM310.678 16.2385H319.282V47.5642H310.678V16.2385Z" fill="#FFFBEF"/>
<path d="M398.388 4.42316V9.39165H383.907V47.5642H378.211V9.39165H363.73V4.42316H398.388Z" fill="#FFFBEF"/>
<path d="M413.077 15.572L413.016 20.9646C412.653 20.904 412.229 20.904 411.683 20.904C410.047 20.904 408.593 21.1464 407.381 21.6311C406.169 22.1158 405.261 22.7823 404.533 23.57C403.806 24.4183 403.261 25.3877 402.776 26.5996C402.352 27.8114 402.049 29.0232 401.928 30.2351C401.807 31.4469 401.746 32.8405 401.746 34.3553V47.5642H396.596V16.2991H401.504V23.0247C403.564 18.0562 407.381 15.572 413.077 15.572Z" fill="#FFFBEF"/>
<path d="M444.645 43.444V47.5036C443.555 47.8671 442.404 48.1095 441.131 48.1095C438.162 48.1095 436.647 46.5341 436.587 43.5045C433.618 46.7765 429.861 48.473 425.256 48.473C422.166 48.473 419.742 47.6853 417.925 46.11C416.107 44.5346 415.259 42.3533 415.259 39.6267C415.259 34.0523 418.955 30.7804 426.347 29.8715C426.832 29.7503 427.498 29.6897 428.467 29.6291C431.982 29.205 434.103 28.7203 434.951 28.2355C435.86 27.569 436.344 26.4784 436.344 24.903C436.344 21.4493 433.981 19.7528 429.255 19.7528C426.832 19.7528 424.953 20.2375 423.741 21.2069C422.469 22.1764 421.742 23.8124 421.5 26.1148H416.47C416.531 22.7217 417.743 20.1163 420.045 18.2986C422.348 16.4202 425.499 15.5114 429.558 15.5114C433.921 15.5114 437.193 16.4808 439.374 18.5409C440.04 19.1468 440.525 19.9951 440.889 21.0858C441.192 22.1158 441.373 22.9641 441.434 23.6306C441.434 24.2971 441.495 25.3272 441.495 26.6602C441.495 28.1749 441.434 30.4774 441.373 33.5676C441.252 36.7183 441.252 39.0208 441.252 40.5356C441.252 41.6868 441.373 42.4745 441.676 42.9592C441.979 43.444 442.525 43.6257 443.373 43.6257C443.676 43.6257 444.1 43.5651 444.645 43.444ZM436.344 31.3863C435.981 31.6286 435.557 31.871 435.193 32.1134C434.769 32.2952 434.224 32.4769 433.618 32.5981C433.012 32.7193 432.588 32.7799 432.345 32.8405C432.103 32.9011 431.618 32.9617 430.77 33.0828C429.922 33.204 429.437 33.2646 429.437 33.2646C428.164 33.3858 427.316 33.507 426.953 33.5676C426.589 33.6282 425.862 33.8099 424.771 34.1129C423.681 34.3553 422.954 34.7188 422.53 35.0824C422.045 35.4459 421.621 35.9306 421.197 36.6577C420.772 37.3848 420.591 38.2331 420.591 39.2026C420.591 40.7779 421.136 42.0504 422.227 43.0198C423.317 43.9287 424.893 44.4134 426.832 44.4134C429.255 44.4134 431.497 43.6863 433.436 42.2321C435.375 40.7779 436.344 39.0208 436.344 37.0819V31.3863Z" fill="#FFFBEF"/>
<path d="M454.347 16.2991V21.1464C456.891 17.3897 460.466 15.4508 465.011 15.4508C468.646 15.4508 471.312 16.4202 472.948 18.3592C474.584 20.2981 475.432 23.0853 475.432 26.7813V47.5642H470.282V29.1444C470.282 27.6296 470.222 26.4178 470.1 25.5695C469.979 24.7212 469.737 23.7518 469.373 22.7823C468.949 21.8129 468.283 21.0858 467.313 20.601C466.344 20.1769 465.071 19.9345 463.556 19.9345C457.618 19.9345 454.65 23.6912 454.65 31.2045V47.5642H449.499V16.2991H454.347Z" fill="#FFFBEF"/>
<path d="M506.374 25.3877H501.224C500.86 21.6311 498.315 19.6922 493.589 19.6922C491.59 19.6922 490.014 20.1163 488.924 20.8434C487.773 21.6311 487.227 22.6611 487.227 23.9336C487.227 24.2971 487.227 24.6607 487.349 25.0242C487.409 25.3877 487.53 25.6907 487.773 25.9331C488.015 26.1754 488.197 26.4178 488.379 26.5996C488.56 26.8419 488.863 27.0237 489.287 27.2055C489.712 27.3873 490.014 27.5084 490.257 27.6296C490.499 27.7508 490.863 27.9326 491.469 28.0538C492.075 28.1749 492.499 28.2961 492.741 28.3567C492.983 28.4173 493.408 28.5385 494.135 28.6597C494.862 28.8415 495.286 28.9626 495.528 28.9626C496.983 29.3262 498.134 29.5685 498.861 29.7503C499.588 29.9927 500.618 30.3562 501.951 30.9016C503.284 31.4469 504.253 31.9922 504.981 32.5981C505.647 33.204 506.253 33.9917 506.798 35.0218C507.344 36.0518 507.647 37.203 507.647 38.4755C507.647 41.505 506.435 43.9893 504.072 45.807C501.709 47.6248 498.558 48.5336 494.68 48.5336C490.439 48.5336 487.167 47.6248 484.864 45.7464C482.562 43.9287 481.35 41.2021 481.229 37.6878H486.318C486.561 42.1109 489.409 44.2922 494.801 44.2922C497.104 44.2922 498.921 43.8681 500.315 42.8986C501.709 41.9292 502.436 40.6568 502.436 39.0814C502.436 38.0513 502.072 37.203 501.345 36.476C500.618 35.8094 499.77 35.3247 498.921 35.0218C498.013 34.7188 496.74 34.3553 495.104 33.9311C494.862 33.9311 494.68 33.8705 494.559 33.8099C494.195 33.7493 493.408 33.5676 492.196 33.3252C490.984 33.0828 490.136 32.8405 489.651 32.6587C489.106 32.5375 488.318 32.2952 487.349 31.9316C486.379 31.5681 485.652 31.2045 485.167 30.841C484.682 30.4774 484.137 29.9927 483.531 29.3868C482.925 28.7809 482.562 28.1144 482.319 27.3267C482.077 26.539 481.956 25.6301 481.956 24.6001C481.956 21.8129 482.986 19.571 485.167 17.8744C487.348 16.2385 490.257 15.3902 493.892 15.3902C497.528 15.3902 500.557 16.2991 502.86 17.9956C505.162 19.7528 506.374 22.237 506.374 25.3877Z" fill="#FFFBEF"/>
<path d="M527.581 4.30198V8.78574C526.672 8.66455 525.703 8.54337 524.733 8.54337C523.097 8.54337 522.007 8.84632 521.522 9.33106C521.037 9.87638 520.795 11.0276 520.795 12.7242V16.2991H526.793V20.5404H520.795V47.5642H515.584V20.5404H510.313V16.2991H515.584V12.1183C515.584 9.33106 516.311 7.27095 517.765 5.99854C519.219 4.72612 521.34 4.05961 524.249 4.05961C525.097 4.05961 526.248 4.1808 527.581 4.30198Z" fill="#FFFBEF"/>
<path d="M545.086 15.3902C549.812 15.3902 553.447 16.8444 556.113 19.7528C558.719 22.6005 560.052 26.5996 560.052 31.7498C560.052 37.0819 558.719 41.2021 556.113 44.1105C553.447 47.0794 549.751 48.5336 545.025 48.5336C540.239 48.5336 536.482 47.0794 533.816 44.171C531.089 41.2627 529.756 37.2636 529.756 32.0528C529.756 26.9631 531.089 22.9035 533.876 19.8739C536.603 16.905 540.36 15.3902 545.086 15.3902ZM544.965 19.7528C541.935 19.7528 539.511 20.8434 537.754 23.0247C535.937 25.2666 535.088 28.2355 535.088 31.9316C535.088 35.8094 535.937 38.7784 537.694 40.9597C539.451 43.141 541.935 44.171 545.086 44.171C548.115 44.171 550.478 43.0804 552.175 40.8991C553.872 38.7178 554.78 35.7489 554.78 31.871C554.78 28.1749 553.872 25.206 552.114 23.0247C550.357 20.8434 547.994 19.7528 544.965 19.7528Z" fill="#FFFBEF"/>
<path d="M582.484 15.572L582.423 20.9646C582.06 20.904 581.636 20.904 581.09 20.904C579.454 20.904 578 21.1464 576.788 21.6311C575.576 22.1158 574.668 22.7823 573.94 23.57C573.213 24.4183 572.668 25.3877 572.183 26.5996C571.759 27.8114 571.456 29.0232 571.335 30.2351C571.214 31.4469 571.153 32.8405 571.153 34.3553V47.5642H566.003V16.2991H570.911V23.0247C572.971 18.0562 576.788 15.572 582.484 15.572Z" fill="#FFFBEF"/>
<path d="M591.21 16.2991L591.149 20.904C592.543 19.0257 593.997 17.6927 595.572 16.8444C597.147 15.9961 599.086 15.572 601.328 15.572C605.63 15.572 608.539 17.3291 610.053 20.9646C612.719 17.3291 616.173 15.5114 620.415 15.5114C623.626 15.5114 626.049 16.3596 627.746 18.1774C629.443 19.9951 630.291 22.4794 630.291 25.7513V47.6247H625.141V27.9326C625.141 25.3272 624.716 23.3882 623.929 22.0552C623.081 20.7222 621.445 20.1163 618.9 20.1163C613.568 20.1163 610.902 23.3276 610.902 29.8715V47.6247H605.751V27.569C605.751 25.1454 605.327 23.3276 604.54 22.0552C603.752 20.7828 602.237 20.1769 599.995 20.1769C596.784 20.1769 594.542 21.1464 593.33 23.0853C592.118 25.0242 591.512 27.6902 591.512 31.0227V47.5642H586.362V16.2991H591.21Z" fill="#FFFBEF"/>
<path d="M665.709 43.444V47.5036C664.618 47.8671 663.467 48.1095 662.195 48.1095C659.226 48.1095 657.711 46.5341 657.65 43.5045C654.681 46.7765 650.925 48.473 646.32 48.473C643.229 48.473 640.806 47.6853 638.988 46.11C637.17 44.5346 636.322 42.3533 636.322 39.6267C636.322 34.0523 640.018 30.7804 647.41 29.8715C647.895 29.7503 648.561 29.6897 649.531 29.6291C653.045 29.205 655.166 28.7203 656.014 28.2355C656.923 27.569 657.408 26.4784 657.408 24.903C657.408 21.4493 655.045 19.7528 650.319 19.7528C647.895 19.7528 646.017 20.2375 644.805 21.2069C643.532 22.1764 642.805 23.8124 642.563 26.1148H637.534C637.594 22.7217 638.806 20.1163 641.109 18.2986C643.411 16.4202 646.562 15.5114 650.622 15.5114C654.984 15.5114 658.256 16.4808 660.437 18.5409C661.104 19.1468 661.589 19.9951 661.952 21.0858C662.255 22.1158 662.437 22.9641 662.497 23.6306C662.497 24.2971 662.558 25.3272 662.558 26.6602C662.558 28.1749 662.497 30.4774 662.437 33.5676C662.316 36.7183 662.316 39.0208 662.316 40.5356C662.316 41.6868 662.437 42.4745 662.74 42.9592C663.043 43.444 663.588 43.6257 664.436 43.6257C664.739 43.6257 665.164 43.5651 665.709 43.444ZM657.408 31.3863C657.044 31.6286 656.62 31.871 656.257 32.1134C655.833 32.2952 655.287 32.4769 654.681 32.5981C654.075 32.7193 653.651 32.7799 653.409 32.8405C653.166 32.9011 652.682 32.9617 651.833 33.0828C650.985 33.204 650.5 33.2646 650.5 33.2646C649.228 33.3858 648.38 33.507 648.016 33.5676C647.653 33.6282 646.925 33.8099 645.835 34.1129C644.744 34.3553 644.017 34.7188 643.593 35.0824C643.108 35.4459 642.684 35.9306 642.26 36.6577C641.836 37.3848 641.654 38.2331 641.654 39.2026C641.654 40.7779 642.199 42.0504 643.29 43.0198C644.381 43.9287 645.956 44.4134 647.895 44.4134C650.319 44.4134 652.561 43.6863 654.499 42.2321C656.438 40.7779 657.408 39.0208 657.408 37.0819V31.3863Z" fill="#FFFBEF"/>
<path d="M718.476 31.9316C718.476 33.1838 718.597 34.4158 718.84 35.6277C719.082 36.7991 719.486 37.8696 720.052 38.839C720.657 39.7681 721.445 40.5154 722.414 41.0809C723.384 41.6464 724.596 41.9292 726.05 41.9292C727.504 41.9292 728.716 41.6464 729.686 41.0809C730.695 40.5154 731.483 39.7681 732.049 38.839C732.654 37.8696 733.079 36.7991 733.321 35.6277C733.563 34.4158 733.685 33.1838 733.685 31.9316C733.685 30.6794 733.563 29.4474 733.321 28.2355C733.079 27.0237 732.654 25.9533 732.049 25.0242C731.483 24.0951 730.695 23.3478 729.686 22.7823C728.716 22.1764 727.504 21.8735 726.05 21.8735C724.596 21.8735 723.384 22.1764 722.414 22.7823C721.445 23.3478 720.657 24.0951 720.052 25.0242C719.486 25.9533 719.082 27.0237 718.84 28.2355C718.597 29.4474 718.476 30.6794 718.476 31.9316ZM709.872 31.9316C709.872 29.4272 710.256 27.1651 711.023 25.1454C711.791 23.0853 712.882 21.3483 714.295 19.9345C715.709 18.4803 717.406 17.3695 719.385 16.602C721.364 15.7941 723.586 15.3902 726.05 15.3902C728.514 15.3902 730.736 15.7941 732.715 16.602C734.735 17.3695 736.452 18.4803 737.865 19.9345C739.279 21.3483 740.37 23.0853 741.137 25.1454C741.905 27.1651 742.289 29.4272 742.289 31.9316C742.289 34.436 741.905 36.6981 741.137 38.7178C740.37 40.7375 739.279 42.4745 737.865 43.9287C736.452 45.3425 734.735 46.4331 732.715 47.2006C730.736 47.9681 728.514 48.3518 726.05 48.3518C723.586 48.3518 721.364 47.9681 719.385 47.2006C717.406 46.4331 715.709 45.3425 714.295 43.9287C712.882 42.4745 711.791 40.7375 711.023 38.7178C710.256 36.6981 709.872 34.436 709.872 31.9316Z" fill="#FFFBEF"/>
<path d="M796.402 31.9316C796.402 33.1838 796.523 34.4158 796.766 35.6277C797.008 36.7991 797.412 37.8696 797.977 38.839C798.583 39.7681 799.371 40.5154 800.34 41.0809C801.31 41.6464 802.522 41.9292 803.976 41.9292C805.43 41.9292 806.642 41.6464 807.611 41.0809C808.621 40.5154 809.409 39.7681 809.974 38.839C810.58 37.8696 811.004 36.7991 811.247 35.6277C811.489 34.4158 811.61 33.1838 811.61 31.9316C811.61 30.6794 811.489 29.4474 811.247 28.2355C811.004 27.0237 810.58 25.9533 809.974 25.0242C809.409 24.0951 808.621 23.3478 807.611 22.7823C806.642 22.1764 805.43 21.8735 803.976 21.8735C802.522 21.8735 801.31 22.1764 800.34 22.7823C799.371 23.3478 798.583 24.0951 797.977 25.0242C797.412 25.9533 797.008 27.0237 796.766 28.2355C796.523 29.4474 796.402 30.6794 796.402 31.9316ZM787.798 31.9316C787.798 29.4272 788.182 27.1651 788.949 25.1454C789.717 23.0853 790.807 21.3483 792.221 19.9345C793.635 18.4803 795.332 17.3695 797.311 16.602C799.29 15.7941 801.512 15.3902 803.976 15.3902C806.44 15.3902 808.662 15.7941 810.641 16.602C812.661 17.3695 814.377 18.4803 815.791 19.9345C817.205 21.3483 818.296 23.0853 819.063 25.1454C819.831 27.1651 820.214 29.4272 820.214 31.9316C820.214 34.436 819.831 36.6981 819.063 38.7178C818.296 40.7375 817.205 42.4745 815.791 43.9287C814.377 45.3425 812.661 46.4331 810.641 47.2006C808.662 47.9681 806.44 48.3518 803.976 48.3518C801.512 48.3518 799.29 47.9681 797.311 47.2006C795.332 46.4331 793.635 45.3425 792.221 43.9287C790.807 42.4745 789.717 40.7375 788.949 38.7178C788.182 36.6981 787.798 34.436 787.798 31.9316Z" fill="#FFFBEF"/>
<path d="M825.809 16.2385H833.988V22.0552H834.11C834.514 21.0858 835.059 20.1971 835.746 19.3892C836.432 18.5409 837.22 17.834 838.109 17.2685C838.997 16.6626 839.947 16.1981 840.956 15.8749C841.966 15.5518 843.017 15.3902 844.107 15.3902C844.673 15.3902 845.299 15.4912 845.986 15.6931V23.6912C845.582 23.6104 845.097 23.5498 844.531 23.5094C843.966 23.4286 843.42 23.3882 842.895 23.3882C841.32 23.3882 839.987 23.6508 838.896 24.1759C837.806 24.701 836.917 25.4281 836.23 26.3572C835.584 27.2459 835.119 28.2961 834.837 29.508C834.554 30.7198 834.413 32.0326 834.413 33.4464V47.5642H825.809V16.2385Z" fill="#FFFBEF"/>
<path d="M870.531 31.8104C870.531 30.5178 870.409 29.2858 870.167 28.1144C869.925 26.9025 869.501 25.8523 868.895 24.9636C868.329 24.0345 867.582 23.2873 866.653 22.7217C865.724 22.1562 864.552 21.8735 863.138 21.8735C861.725 21.8735 860.533 22.1562 859.564 22.7217C858.594 23.2873 857.806 24.0345 857.201 24.9636C856.635 25.8927 856.211 26.9631 855.928 28.1749C855.686 29.3464 855.565 30.5784 855.565 31.871C855.565 33.0828 855.706 34.2947 855.989 35.5065C856.271 36.7183 856.716 37.809 857.322 38.7784C857.968 39.7075 858.756 40.475 859.685 41.0809C860.654 41.6464 861.805 41.9292 863.138 41.9292C864.552 41.9292 865.724 41.6464 866.653 41.0809C867.622 40.5154 868.39 39.7681 868.955 38.839C869.521 37.8696 869.925 36.7789 870.167 35.5671C870.409 34.3553 870.531 33.103 870.531 31.8104ZM870.652 43.5651H870.531C869.521 45.2617 868.188 46.4937 866.532 47.2612C864.916 47.9883 863.078 48.3518 861.018 48.3518C858.675 48.3518 856.615 47.9075 854.837 47.0188C853.06 46.0898 851.586 44.8577 850.414 43.3228C849.283 41.7474 848.415 39.9499 847.809 37.9301C847.243 35.9104 846.961 33.8099 846.961 31.6287C846.961 29.5282 847.243 27.5084 847.809 25.5695C848.415 23.5902 849.283 21.8533 850.414 20.3587C851.586 18.8641 853.04 17.6725 854.777 16.7838C856.514 15.8547 858.533 15.3902 860.836 15.3902C862.694 15.3902 864.451 15.7941 866.107 16.602C867.804 17.3695 869.137 18.5207 870.106 20.0557H870.228V4.30198H878.832V47.5642H870.652V43.5651Z" fill="#FFFBEF"/>
<path d="M894.181 11.3912H885.577V4.30198H894.181V11.3912ZM885.577 16.2385H894.181V47.5642H885.577V16.2385Z" fill="#FFFBEF"/>
<path d="M900.956 16.2385H909.136V20.601H909.318C910.408 18.7833 911.822 17.4705 913.559 16.6626C915.296 15.8143 917.073 15.3902 918.891 15.3902C921.194 15.3902 923.072 15.7133 924.526 16.3596C926.021 16.9656 927.192 17.834 928.04 18.9651C928.889 20.0557 929.474 21.4089 929.797 23.0247C930.161 24.6001 930.343 26.3572 930.343 28.2961V47.5642H921.739V29.8715C921.739 27.2863 921.335 25.3676 920.527 24.1153C919.719 22.8227 918.285 22.1764 916.225 22.1764C913.882 22.1764 912.186 22.8833 911.135 24.2971C910.085 25.6705 909.56 27.9528 909.56 31.1439V47.5642H900.956V16.2385Z" fill="#FFFBEF"/>
<path d="M936.509 25.8725C936.63 23.8528 937.135 22.1764 938.024 20.8434C938.913 19.5104 940.044 18.4399 941.417 17.6321C942.791 16.8242 944.326 16.2587 946.022 15.9355C947.759 15.572 949.496 15.3902 951.233 15.3902C952.808 15.3902 954.404 15.5114 956.02 15.7537C957.636 15.9557 959.11 16.3798 960.443 17.0262C961.776 17.6725 962.867 18.5813 963.715 19.7528C964.563 20.8838 964.987 22.3986 964.987 24.2971V40.5962C964.987 42.01 965.068 43.3632 965.23 44.6558C965.391 45.9484 965.674 46.9179 966.078 47.5642H957.353C957.191 47.0794 957.05 46.5947 956.929 46.11C956.848 45.5848 956.787 45.0597 956.747 44.5346C955.373 45.9484 953.758 46.938 951.899 47.5036C950.041 48.0691 948.143 48.3518 946.204 48.3518C944.709 48.3518 943.316 48.1701 942.023 47.8065C940.731 47.443 939.599 46.8775 938.63 46.11C937.661 45.3425 936.893 44.373 936.328 43.2016C935.802 42.0302 935.54 40.6366 935.54 39.0208C935.54 37.2434 935.843 35.7893 936.449 34.6582C937.095 33.4868 937.903 32.5577 938.872 31.871C939.882 31.1843 941.013 30.6794 942.266 30.3562C943.558 29.9927 944.851 29.7099 946.143 29.508C947.436 29.306 948.708 29.1444 949.961 29.0232C951.213 28.902 952.324 28.7203 953.293 28.4779C954.263 28.2355 955.03 27.8922 955.596 27.4479C956.161 26.9631 956.424 26.2764 956.383 25.3877C956.383 24.4587 956.222 23.7316 955.899 23.2065C955.616 22.6409 955.212 22.2168 954.687 21.934C954.202 21.6109 953.616 21.4089 952.93 21.3281C952.283 21.207 951.576 21.1464 950.809 21.1464C949.112 21.1464 947.779 21.5099 946.81 22.237C945.84 22.9641 945.275 24.1759 945.113 25.8725H936.509ZM956.383 32.2346C956.02 32.5577 955.555 32.8203 954.99 33.0223C954.465 33.1838 953.879 33.3252 953.233 33.4464C952.627 33.5676 951.98 33.6686 951.294 33.7493C950.607 33.8301 949.92 33.9311 949.234 34.0523C948.587 34.1735 947.941 34.3351 947.295 34.537C946.689 34.739 946.143 35.0218 945.659 35.3853C945.214 35.7085 944.851 36.1326 944.568 36.6577C944.285 37.1828 944.144 37.8494 944.144 38.6572C944.144 39.4247 944.285 40.071 944.568 40.5962C944.851 41.1213 945.234 41.5454 945.719 41.8686C946.204 42.1513 946.769 42.3533 947.416 42.4745C948.062 42.5957 948.729 42.6563 949.415 42.6563C951.112 42.6563 952.425 42.3735 953.354 41.808C954.283 41.2425 954.97 40.576 955.414 39.8085C955.858 39.0006 956.121 38.1927 956.201 37.3848C956.323 36.5769 956.383 35.9306 956.383 35.4459V32.2346ZM962.261 0L952.384 10.7247H946.386L952.808 0H962.261Z" fill="#FFFBEF"/>
<path d="M971.666 16.2385H979.845V22.0552H979.966C980.37 21.0858 980.916 20.1971 981.602 19.3892C982.289 18.5409 983.077 17.834 983.966 17.2685C984.854 16.6626 985.804 16.1981 986.813 15.8749C987.823 15.5518 988.873 15.3902 989.964 15.3902C990.53 15.3902 991.156 15.4912 991.842 15.6931V23.6912C991.438 23.6104 990.954 23.5498 990.388 23.5094C989.823 23.4286 989.277 23.3882 988.752 23.3882C987.177 23.3882 985.844 23.6508 984.753 24.1759C983.663 24.701 982.774 25.4281 982.087 26.3572C981.441 27.2459 980.976 28.2961 980.694 29.508C980.411 30.7198 980.269 32.0326 980.269 33.4464V47.5642H971.666V16.2385Z" fill="#FFFBEF"/>
<path d="M1004.06 11.3912H995.458V4.30198H1004.06V11.3912ZM995.458 16.2385H1004.06V47.5642H995.458V16.2385Z" fill="#FFFBEF"/>
<path d="M1018.47 31.9316C1018.47 33.1838 1018.59 34.4158 1018.83 35.6277C1019.08 36.7991 1019.48 37.8696 1020.05 38.839C1020.65 39.7681 1021.44 40.5154 1022.41 41.0809C1023.38 41.6464 1024.59 41.9292 1026.05 41.9292C1027.5 41.9292 1028.71 41.6464 1029.68 41.0809C1030.69 40.5154 1031.48 39.7681 1032.04 38.839C1032.65 37.8696 1033.07 36.7991 1033.32 35.6277C1033.56 34.4158 1033.68 33.1838 1033.68 31.9316C1033.68 30.6794 1033.56 29.4474 1033.32 28.2355C1033.07 27.0237 1032.65 25.9533 1032.04 25.0242C1031.48 24.0951 1030.69 23.3478 1029.68 22.7823C1028.71 22.1764 1027.5 21.8735 1026.05 21.8735C1024.59 21.8735 1023.38 22.1764 1022.41 22.7823C1021.44 23.3478 1020.65 24.0951 1020.05 25.0242C1019.48 25.9533 1019.08 27.0237 1018.83 28.2355C1018.59 29.4474 1018.47 30.6794 1018.47 31.9316ZM1009.87 31.9316C1009.87 29.4272 1010.25 27.1651 1011.02 25.1454C1011.79 23.0853 1012.88 21.3483 1014.29 19.9345C1015.7 18.4803 1017.4 17.3695 1019.38 16.602C1021.36 15.7941 1023.58 15.3902 1026.05 15.3902C1028.51 15.3902 1030.73 15.7941 1032.71 16.602C1034.73 17.3695 1036.45 18.4803 1037.86 19.9345C1039.27 21.3483 1040.36 23.0853 1041.13 25.1454C1041.9 27.1651 1042.28 29.4272 1042.28 31.9316C1042.28 34.436 1041.9 36.6981 1041.13 38.7178C1040.36 40.7375 1039.27 42.4745 1037.86 43.9287C1036.45 45.3425 1034.73 46.4331 1032.71 47.2006C1030.73 47.9681 1028.51 48.3518 1026.05 48.3518C1023.58 48.3518 1021.36 47.9681 1019.38 47.2006C1017.4 46.4331 1015.7 45.3425 1014.29 43.9287C1012.88 42.4745 1011.79 40.7375 1011.02 38.7178C1010.25 36.6981 1009.87 34.436 1009.87 31.9316Z" fill="#FFFBEF"/>
<path d="M254.633 111.773C253.058 119.044 248.513 122.679 241 122.679C236.395 122.679 232.759 121.285 230.154 118.377C227.549 115.529 226.276 111.53 226.276 106.441C226.276 101.411 227.609 97.3518 230.275 94.2011C232.941 91.0503 236.456 89.475 240.818 89.475C245.605 89.475 249.18 91.1109 251.482 94.3829C253.785 97.6548 254.996 101.714 254.996 106.683V107.41H231.487L231.426 107.774C231.426 111.106 232.275 113.711 234.032 115.59C235.728 117.529 238.152 118.438 241.182 118.438C243.424 118.438 245.181 117.953 246.514 116.862C247.847 115.832 248.877 114.136 249.604 111.773H254.633ZM249.664 103.229C249.422 100.26 248.513 97.9577 246.938 96.2612C245.362 94.5646 243.242 93.7164 240.697 93.7164C238.152 93.7164 236.092 94.5646 234.456 96.2612C232.759 97.9577 231.79 100.321 231.487 103.229H249.664Z" fill="#FFFBEF"/>
<path d="M265.304 90.3838L265.243 94.9888C266.637 93.1104 268.091 91.7774 269.666 90.9292C271.242 90.0809 273.18 89.6567 275.422 89.6567C279.724 89.6567 282.633 91.4139 284.147 95.0494C286.814 91.4139 290.267 89.5961 294.509 89.5961C297.72 89.5961 300.144 90.4444 301.84 92.2622C303.537 94.0799 304.385 96.5641 304.385 99.8361V121.71H299.235V102.017C299.235 99.4119 298.811 97.473 298.023 96.14C297.175 94.807 295.539 94.2011 292.994 94.2011C287.662 94.2011 284.996 97.4124 284.996 103.956V121.71H279.846V101.654C279.846 99.2302 279.421 97.4124 278.634 96.14C277.846 94.8676 276.331 94.2617 274.089 94.2617C270.878 94.2617 268.636 95.2311 267.424 97.1701C266.212 99.109 265.607 101.775 265.607 105.108V121.649H260.456V90.3838H265.304Z" fill="#FFFBEF"/>
<path d="M349.699 101.351C349.133 97.7558 347.013 95.9582 343.337 95.9582C341.963 95.9582 340.812 96.2814 339.883 96.9277C338.954 97.5336 338.186 98.3415 337.58 99.3513C337.015 100.321 336.611 101.411 336.369 102.623C336.126 103.795 336.005 104.966 336.005 106.138C336.005 107.269 336.126 108.42 336.369 109.591C336.611 110.763 336.995 111.833 337.52 112.803C338.085 113.732 338.833 114.499 339.762 115.105C340.691 115.711 341.822 116.014 343.155 116.014C345.215 116.014 346.79 115.448 347.881 114.317C349.012 113.146 349.719 111.591 350.002 109.652H358.303C357.737 113.812 356.121 116.983 353.455 119.165C350.789 121.346 347.376 122.437 343.215 122.437C340.873 122.437 338.712 122.053 336.732 121.285C334.793 120.478 333.137 119.367 331.764 117.953C330.39 116.539 329.32 114.863 328.552 112.924C327.785 110.944 327.401 108.783 327.401 106.441C327.401 104.017 327.744 101.775 328.431 99.7149C329.158 97.6144 330.209 95.8168 331.582 94.3223C332.955 92.7873 334.632 91.5957 336.611 90.7474C338.59 89.8991 340.852 89.475 343.397 89.475C345.255 89.475 347.033 89.7173 348.729 90.2021C350.466 90.6868 352.001 91.4341 353.334 92.4439C354.708 93.4134 355.818 94.6454 356.667 96.14C357.515 97.5942 358 99.3311 358.121 101.351H349.699Z" fill="#FFFBEF"/>
<path d="M372.01 85.4759H363.406V78.3868H372.01V85.4759ZM363.406 90.3232H372.01V121.649H363.406V90.3232Z" fill="#FFFBEF"/>
<path d="M378.784 90.3232H386.964V94.6858H387.146C388.237 92.8681 389.651 91.5553 391.387 90.7474C393.124 89.8991 394.902 89.475 396.719 89.475C399.022 89.475 400.9 89.7981 402.354 90.4444C403.849 91.0503 405.02 91.9188 405.869 93.0499C406.717 94.1405 407.303 95.4937 407.626 97.1095C407.989 98.6848 408.171 100.442 408.171 102.381V121.649H399.567V103.956C399.567 101.371 399.163 99.4523 398.355 98.2001C397.548 96.9075 396.114 96.2612 394.053 96.2612C391.711 96.2612 390.014 96.9681 388.964 98.3819C387.914 99.7553 387.388 102.038 387.388 105.229V121.649H378.784V90.3232Z" fill="#FFFBEF"/>
<path d="M435.787 102.623C435.383 100.442 434.656 98.7858 433.606 97.6548C432.596 96.5238 431.041 95.9582 428.94 95.9582C427.567 95.9582 426.416 96.2006 425.487 96.6853C424.598 97.1297 423.871 97.6952 423.305 98.3819C422.78 99.0686 422.396 99.7957 422.154 100.563C421.952 101.331 421.831 102.017 421.79 102.623H435.787ZM421.79 108.076C421.912 110.864 422.619 112.883 423.911 114.136C425.204 115.388 427.062 116.014 429.486 116.014C431.223 116.014 432.717 115.59 433.969 114.742C435.222 113.853 435.989 112.924 436.272 111.954H443.846C442.634 115.711 440.776 118.397 438.271 120.013C435.767 121.629 432.737 122.437 429.183 122.437C426.719 122.437 424.497 122.053 422.518 121.285C420.538 120.478 418.862 119.346 417.489 117.892C416.115 116.438 415.045 114.701 414.277 112.681C413.55 110.662 413.187 108.44 413.187 106.016C413.187 103.674 413.57 101.492 414.338 99.4725C415.105 97.4528 416.196 95.7159 417.61 94.2617C419.024 92.7671 420.7 91.5957 422.639 90.7474C424.618 89.8991 426.799 89.475 429.183 89.475C431.849 89.475 434.171 90.0001 436.151 91.0503C438.13 92.0602 439.746 93.4336 440.998 95.1705C442.291 96.9075 443.22 98.8868 443.785 101.108C444.351 103.33 444.553 105.653 444.391 108.076H421.79Z" fill="#FFFBEF"/>
<path d="M449.736 90.3232H457.856V94.5646H457.977C459.108 92.9489 460.461 91.6966 462.036 90.808C463.652 89.9193 465.49 89.475 467.55 89.475C469.53 89.475 471.327 89.8587 472.943 90.6262C474.599 91.3937 475.851 92.7469 476.699 94.6858C477.629 93.3124 478.881 92.1006 480.456 91.0503C482.072 90.0001 483.97 89.475 486.152 89.475C487.808 89.475 489.343 89.6769 490.757 90.0809C492.17 90.4848 493.382 91.1311 494.392 92.0198C495.402 92.9085 496.19 94.0799 496.755 95.5341C497.321 96.9479 497.603 98.6646 497.603 100.684V121.649H489V103.896C489 102.845 488.959 101.856 488.878 100.927C488.798 99.9976 488.575 99.1898 488.212 98.5031C487.848 97.8164 487.303 97.271 486.576 96.8671C485.889 96.4632 484.94 96.2612 483.728 96.2612C482.516 96.2612 481.527 96.5035 480.759 96.9883C480.032 97.4326 479.446 98.0385 479.002 98.806C478.598 99.5331 478.315 100.381 478.154 101.351C478.032 102.28 477.972 103.229 477.972 104.199V121.649H469.368V104.077C469.368 103.148 469.348 102.24 469.307 101.351C469.267 100.422 469.085 99.5735 468.762 98.806C468.479 98.0385 467.974 97.4326 467.247 96.9883C466.561 96.5035 465.531 96.2612 464.157 96.2612C463.753 96.2612 463.208 96.3622 462.521 96.5641C461.875 96.7257 461.228 97.0691 460.582 97.5942C459.976 98.0789 459.451 98.806 459.007 99.7755C458.562 100.705 458.34 101.937 458.34 103.472V121.649H449.736V90.3232Z" fill="#FFFBEF"/>
<path d="M504.041 99.9573C504.163 97.9376 504.667 96.2612 505.556 94.9282C506.445 93.5952 507.576 92.5247 508.949 91.7168C510.323 90.909 511.858 90.3434 513.554 90.0203C515.291 89.6567 517.028 89.475 518.765 89.475C520.34 89.475 521.936 89.5961 523.552 89.8385C525.167 90.0405 526.642 90.4646 527.975 91.1109C529.308 91.7572 530.398 92.6661 531.247 93.8375C532.095 94.9686 532.519 96.4834 532.519 98.3819V114.681C532.519 116.095 532.6 117.448 532.762 118.741C532.923 120.033 533.206 121.003 533.61 121.649H524.885C524.723 121.164 524.582 120.679 524.461 120.195C524.38 119.67 524.319 119.144 524.279 118.619C522.905 120.033 521.29 121.023 519.432 121.588C517.573 122.154 515.675 122.437 513.736 122.437C512.241 122.437 510.848 122.255 509.555 121.891C508.262 121.528 507.131 120.962 506.162 120.195C505.193 119.427 504.425 118.458 503.859 117.286C503.334 116.115 503.072 114.721 503.072 113.106C503.072 111.328 503.375 109.874 503.981 108.743C504.627 107.572 505.435 106.642 506.404 105.956C507.414 105.269 508.545 104.764 509.797 104.441C511.09 104.077 512.383 103.795 513.675 103.593C514.968 103.391 516.24 103.229 517.493 103.108C518.745 102.987 519.856 102.805 520.825 102.563C521.795 102.32 522.562 101.977 523.128 101.533C523.693 101.048 523.956 100.361 523.915 99.4725C523.915 98.5434 523.754 97.8164 523.431 97.2912C523.148 96.7257 522.744 96.3016 522.219 96.0188C521.734 95.6957 521.148 95.4937 520.462 95.4129C519.815 95.2917 519.108 95.2311 518.341 95.2311C516.644 95.2311 515.311 95.5947 514.342 96.3218C513.372 97.0489 512.807 98.2607 512.645 99.9573H504.041ZM523.915 106.319C523.552 106.642 523.087 106.905 522.522 107.107C521.996 107.269 521.411 107.41 520.765 107.531C520.159 107.652 519.512 107.753 518.826 107.834C518.139 107.915 517.452 108.016 516.765 108.137C516.119 108.258 515.473 108.42 514.827 108.622C514.221 108.824 513.675 109.107 513.191 109.47C512.746 109.793 512.383 110.217 512.1 110.743C511.817 111.268 511.676 111.934 511.676 112.742C511.676 113.509 511.817 114.156 512.1 114.681C512.383 115.206 512.766 115.63 513.251 115.953C513.736 116.236 514.301 116.438 514.948 116.559C515.594 116.68 516.261 116.741 516.947 116.741C518.644 116.741 519.957 116.458 520.886 115.893C521.815 115.327 522.501 114.661 522.946 113.893C523.39 113.085 523.653 112.277 523.733 111.47C523.855 110.662 523.915 110.015 523.915 109.531V106.319Z" fill="#FFFBEF"/>
<path d="M550.104 90.3232H556.405V96.0794H550.104V111.591C550.104 113.045 550.346 114.014 550.831 114.499C551.316 114.984 552.285 115.226 553.739 115.226C554.224 115.226 554.689 115.206 555.133 115.166C555.577 115.125 556.001 115.065 556.405 114.984V121.649C555.678 121.77 554.87 121.851 553.982 121.891C553.093 121.932 552.225 121.952 551.376 121.952C550.043 121.952 548.771 121.851 547.559 121.649C546.388 121.487 545.337 121.144 544.408 120.619C543.52 120.094 542.813 119.346 542.288 118.377C541.763 117.408 541.5 116.135 541.5 114.56V96.0794H536.289V90.3232H541.5V80.9316H550.104V90.3232Z" fill="#FFFBEF"/>
<path d="M568.134 106.016C568.134 107.269 568.255 108.501 568.497 109.712C568.74 110.884 569.143 111.954 569.709 112.924C570.315 113.853 571.103 114.6 572.072 115.166C573.042 115.731 574.253 116.014 575.708 116.014C577.162 116.014 578.373 115.731 579.343 115.166C580.353 114.6 581.141 113.853 581.706 112.924C582.312 111.954 582.736 110.884 582.978 109.712C583.221 108.501 583.342 107.269 583.342 106.016C583.342 104.764 583.221 103.532 582.978 102.32C582.736 101.108 582.312 100.038 581.706 99.109C581.141 98.1799 580.353 97.4326 579.343 96.8671C578.373 96.2612 577.162 95.9582 575.708 95.9582C574.253 95.9582 573.042 96.2612 572.072 96.8671C571.103 97.4326 570.315 98.1799 569.709 99.109C569.143 100.038 568.74 101.108 568.497 102.32C568.255 103.532 568.134 104.764 568.134 106.016ZM559.53 106.016C559.53 103.512 559.913 101.25 560.681 99.2302C561.448 97.1701 562.539 95.4331 563.953 94.0193C565.367 92.5651 567.063 91.4543 569.042 90.6868C571.022 89.8789 573.243 89.475 575.708 89.475C578.172 89.475 580.393 89.8789 582.373 90.6868C584.392 91.4543 586.109 92.5651 587.523 94.0193C588.937 95.4331 590.027 97.1701 590.795 99.2302C591.562 101.25 591.946 103.512 591.946 106.016C591.946 108.521 591.562 110.783 590.795 112.803C590.027 114.822 588.937 116.559 587.523 118.013C586.109 119.427 584.392 120.518 582.373 121.285C580.393 122.053 578.172 122.437 575.708 122.437C573.243 122.437 571.022 122.053 569.042 121.285C567.063 120.518 565.367 119.427 563.953 118.013C562.539 116.559 561.448 114.822 560.681 112.803C559.913 110.783 559.53 108.521 559.53 106.016Z" fill="#FFFBEF"/>
<path d="M612.143 114.257C613.355 114.257 614.425 114.014 615.354 113.53C616.283 113.045 617.051 112.399 617.656 111.591C618.262 110.783 618.707 109.874 618.99 108.864C619.313 107.814 619.474 106.723 619.474 105.592C619.474 104.3 619.353 103.088 619.111 101.957C618.868 100.785 618.464 99.7553 617.899 98.8666C617.333 97.9779 616.586 97.271 615.657 96.7459C614.728 96.2208 613.557 95.9582 612.143 95.9582C610.931 95.9582 609.881 96.2006 608.992 96.6853C608.144 97.1701 607.417 97.8366 606.811 98.6848C606.245 99.4927 605.821 100.442 605.538 101.533C605.296 102.583 605.175 103.694 605.175 104.865C605.175 105.996 605.276 107.127 605.478 108.258C605.72 109.349 606.104 110.339 606.629 111.227C607.194 112.116 607.922 112.843 608.81 113.409C609.699 113.974 610.81 114.257 612.143 114.257ZM627.654 119.649C627.654 120.902 627.472 122.336 627.109 123.951C626.786 125.567 626.059 127.062 624.928 128.435C623.797 129.849 622.16 131.041 620.02 132.01C617.879 132.98 615.011 133.464 611.416 133.464C609.881 133.464 608.305 133.262 606.69 132.858C605.114 132.495 603.66 131.909 602.327 131.101C601.034 130.293 599.944 129.243 599.055 127.95C598.207 126.698 597.722 125.183 597.601 123.406H606.144C606.548 125.022 607.336 126.133 608.507 126.739C609.679 127.385 611.032 127.708 612.567 127.708C614.991 127.708 616.748 126.981 617.838 125.527C618.969 124.073 619.515 122.235 619.474 120.013V115.893H619.353C618.424 117.549 617.091 118.781 615.354 119.589C613.658 120.356 611.86 120.74 609.961 120.74C607.619 120.74 605.599 120.336 603.902 119.528C602.206 118.68 600.812 117.549 599.722 116.135C598.631 114.681 597.823 113.005 597.298 111.106C596.813 109.167 596.571 107.127 596.571 104.986C596.571 102.967 596.854 101.028 597.419 99.1696C598.025 97.271 598.893 95.6149 600.024 94.2011C601.156 92.7469 602.549 91.5957 604.205 90.7474C605.902 89.8991 607.841 89.475 610.022 89.475C612.082 89.475 613.88 89.8587 615.415 90.6262C616.99 91.3937 618.303 92.6863 619.353 94.504H619.474V90.3232H627.654V119.649Z" fill="#FFFBEF"/>
<path d="M634.581 90.3232H642.761V96.14H642.882C643.286 95.1705 643.832 94.2819 644.518 93.474C645.205 92.6257 645.993 91.9188 646.881 91.3533C647.77 90.7474 648.719 90.2828 649.729 89.9597C650.739 89.6365 651.789 89.475 652.88 89.475C653.445 89.475 654.072 89.576 654.758 89.7779V97.776C654.354 97.6952 653.87 97.6346 653.304 97.5942C652.739 97.5134 652.193 97.473 651.668 97.473C650.093 97.473 648.76 97.7356 647.669 98.2607C646.578 98.7858 645.69 99.5129 645.003 100.442C644.357 101.331 643.892 102.381 643.609 103.593C643.327 104.805 643.185 106.117 643.185 107.531V121.649H634.581V90.3232Z" fill="#FFFBEF"/>
<path d="M657.768 99.9573C657.889 97.9376 658.394 96.2612 659.283 94.9282C660.171 93.5952 661.302 92.5247 662.676 91.7168C664.049 90.909 665.584 90.3434 667.281 90.0203C669.018 89.6567 670.755 89.475 672.492 89.475C674.067 89.475 675.663 89.5961 677.278 89.8385C678.894 90.0405 680.369 90.4646 681.702 91.1109C683.035 91.7572 684.125 92.6661 684.973 93.8375C685.822 94.9686 686.246 96.4834 686.246 98.3819V114.681C686.246 116.095 686.327 117.448 686.488 118.741C686.65 120.033 686.933 121.003 687.336 121.649H678.611C678.45 121.164 678.308 120.679 678.187 120.195C678.106 119.67 678.046 119.144 678.005 118.619C676.632 120.033 675.016 121.023 673.158 121.588C671.3 122.154 669.401 122.437 667.463 122.437C665.968 122.437 664.574 122.255 663.282 121.891C661.989 121.528 660.858 120.962 659.889 120.195C658.919 119.427 658.152 118.458 657.586 117.286C657.061 116.115 656.799 114.721 656.799 113.106C656.799 111.328 657.102 109.874 657.707 108.743C658.354 107.572 659.162 106.642 660.131 105.956C661.141 105.269 662.272 104.764 663.524 104.441C664.817 104.077 666.109 103.795 667.402 103.593C668.695 103.391 669.967 103.229 671.219 103.108C672.471 102.987 673.582 102.805 674.552 102.563C675.521 102.32 676.289 101.977 676.854 101.533C677.42 101.048 677.682 100.361 677.642 99.4725C677.642 98.5434 677.48 97.8164 677.157 97.2912C676.874 96.7257 676.471 96.3016 675.945 96.0188C675.461 95.6957 674.875 95.4937 674.188 95.4129C673.542 95.2917 672.835 95.2311 672.068 95.2311C670.371 95.2311 669.038 95.5947 668.068 96.3218C667.099 97.0489 666.534 98.2607 666.372 99.9573H657.768ZM677.642 106.319C677.278 106.642 676.814 106.905 676.248 107.107C675.723 107.269 675.137 107.41 674.491 107.531C673.885 107.652 673.239 107.753 672.552 107.834C671.866 107.915 671.179 108.016 670.492 108.137C669.846 108.258 669.2 108.42 668.553 108.622C667.947 108.824 667.402 109.107 666.917 109.47C666.473 109.793 666.109 110.217 665.827 110.743C665.544 111.268 665.402 111.934 665.402 112.742C665.402 113.509 665.544 114.156 665.827 114.681C666.109 115.206 666.493 115.63 666.978 115.953C667.463 116.236 668.028 116.438 668.674 116.559C669.321 116.68 669.987 116.741 670.674 116.741C672.37 116.741 673.683 116.458 674.612 115.893C675.541 115.327 676.228 114.661 676.672 113.893C677.117 113.085 677.379 112.277 677.46 111.47C677.581 110.662 677.642 110.015 677.642 109.531V106.319ZM683.519 74.0848L673.643 84.8094H667.644L674.067 74.0848H683.519Z" fill="#FFFBEF"/>
<path d="M694.802 96.0794H689.652V90.3232H694.802V87.8996C694.802 85.1124 695.671 82.8301 697.408 81.0528C699.145 79.2754 701.771 78.3868 705.285 78.3868C706.052 78.3868 706.82 78.4272 707.587 78.5079C708.355 78.5483 709.102 78.5887 709.829 78.6291V85.0518C708.819 84.9306 707.769 84.87 706.678 84.87C705.507 84.87 704.659 85.1528 704.134 85.7183C703.649 86.2434 703.406 87.1523 703.406 88.4449V90.3232H709.344V96.0794H703.406V121.649H694.802V96.0794ZM714.555 90.3232H723.159V121.649H714.555V90.3232ZM723.159 85.4759H714.555V78.3868H723.159V85.4759Z" fill="#FFFBEF"/>
<path d="M751.294 101.351C750.728 97.7558 748.607 95.9582 744.931 95.9582C743.558 95.9582 742.407 96.2814 741.478 96.9277C740.549 97.5336 739.781 98.3415 739.175 99.3513C738.61 100.321 738.206 101.411 737.963 102.623C737.721 103.795 737.6 104.966 737.6 106.138C737.6 107.269 737.721 108.42 737.963 109.591C738.206 110.763 738.589 111.833 739.115 112.803C739.68 113.732 740.427 114.499 741.357 115.105C742.286 115.711 743.417 116.014 744.75 116.014C746.81 116.014 748.385 115.448 749.476 114.317C750.607 113.146 751.314 111.591 751.596 109.652H759.897C759.332 113.812 757.716 116.983 755.05 119.165C752.384 121.346 748.971 122.437 744.81 122.437C742.467 122.437 740.306 122.053 738.327 121.285C736.388 120.478 734.732 119.367 733.358 117.953C731.985 116.539 730.915 114.863 730.147 112.924C729.38 110.944 728.996 108.783 728.996 106.441C728.996 104.017 729.339 101.775 730.026 99.7149C730.753 97.6144 731.803 95.8168 733.177 94.3223C734.55 92.7873 736.226 91.5957 738.206 90.7474C740.185 89.8991 742.447 89.475 744.992 89.475C746.85 89.475 748.627 89.7173 750.324 90.2021C752.061 90.6868 753.596 91.4341 754.929 92.4439C756.302 93.4134 757.413 94.6454 758.261 96.14C759.11 97.5942 759.594 99.3311 759.716 101.351H751.294Z" fill="#FFFBEF"/>
<path d="M772.392 106.016C772.392 107.269 772.514 108.501 772.756 109.712C772.998 110.884 773.402 111.954 773.968 112.924C774.574 113.853 775.361 114.6 776.331 115.166C777.3 115.731 778.512 116.014 779.966 116.014C781.421 116.014 782.632 115.731 783.602 115.166C784.612 114.6 785.399 113.853 785.965 112.924C786.571 111.954 786.995 110.884 787.237 109.712C787.48 108.501 787.601 107.269 787.601 106.016C787.601 104.764 787.48 103.532 787.237 102.32C786.995 101.108 786.571 100.038 785.965 99.109C785.399 98.1799 784.612 97.4326 783.602 96.8671C782.632 96.2612 781.421 95.9582 779.966 95.9582C778.512 95.9582 777.3 96.2612 776.331 96.8671C775.361 97.4326 774.574 98.1799 773.968 99.109C773.402 100.038 772.998 101.108 772.756 102.32C772.514 103.532 772.392 104.764 772.392 106.016ZM763.789 106.016C763.789 103.512 764.172 101.25 764.94 99.2302C765.707 97.1701 766.798 95.4331 768.212 94.0193C769.625 92.5651 771.322 91.4543 773.301 90.6868C775.281 89.8789 777.502 89.475 779.966 89.475C782.43 89.475 784.652 89.8789 786.631 90.6868C788.651 91.4543 790.368 92.5651 791.782 94.0193C793.195 95.4331 794.286 97.1701 795.054 99.2302C795.821 101.25 796.205 103.512 796.205 106.016C796.205 108.521 795.821 110.783 795.054 112.803C794.286 114.822 793.195 116.559 791.782 118.013C790.368 119.427 788.651 120.518 786.631 121.285C784.652 122.053 782.43 122.437 779.966 122.437C777.502 122.437 775.281 122.053 773.301 121.285C771.322 120.518 769.625 119.427 768.212 118.013C766.798 116.559 765.707 114.822 764.94 112.803C764.172 110.783 763.789 108.521 763.789 106.016Z" fill="#FFFBEF"/>
<path d="M802.163 112.318H811.675V121.649H802.163V112.318Z" fill="#FFFBEF"/>
<path d="M246.223 234.44L242.828 234.477C242.459 230.898 240.282 229.126 236.297 229.126C234.415 229.126 232.939 229.495 231.906 230.27C230.873 231.008 230.356 232.078 230.356 233.481C230.356 233.96 230.43 234.403 230.578 234.772C230.725 235.141 230.984 235.436 231.353 235.731C231.722 236.027 232.054 236.248 232.349 236.469C232.681 236.654 233.197 236.838 233.862 237.023C234.563 237.244 235.116 237.392 235.522 237.466C235.965 237.539 236.592 237.687 237.478 237.872C238.585 238.093 239.47 238.314 240.171 238.499C240.909 238.683 241.758 238.978 242.717 239.384C243.714 239.827 244.489 240.27 245.079 240.786C245.669 241.303 246.149 241.967 246.592 242.779C247.035 243.628 247.219 244.587 247.219 245.62C247.219 247.465 246.702 249.015 245.669 250.269C244.636 251.524 243.382 252.373 241.906 252.852C240.43 253.369 238.806 253.59 236.998 253.59C233.714 253.59 231.094 252.816 229.102 251.266C227.109 249.716 226.113 247.391 226.113 244.329H229.471C229.545 246.58 230.319 248.203 231.722 249.236C233.161 250.269 235.006 250.786 237.293 250.786C239.101 250.786 240.651 250.38 241.942 249.642C243.197 248.904 243.861 247.687 243.861 245.989C243.861 245.177 243.677 244.513 243.345 243.96C242.976 243.406 242.459 242.964 241.721 242.595C240.983 242.226 240.245 241.967 239.507 241.746C238.769 241.524 237.773 241.266 236.592 241.008C236.408 240.971 236.297 240.934 236.223 240.897C233.493 240.307 231.722 239.79 230.91 239.421C228.327 238.314 227.072 236.432 227.072 233.702C227.072 231.193 227.995 229.348 229.84 228.093C231.685 226.839 233.935 226.211 236.555 226.211C239.433 226.211 241.758 226.913 243.455 228.278C245.19 229.68 246.112 231.709 246.223 234.44Z" fill="#FFFBEF" fill-opacity="0.5"/>
<path d="M259.338 233.407C262.216 233.407 264.43 234.292 266.054 236.063C267.64 237.798 268.452 240.233 268.452 243.369C268.452 246.617 267.64 249.126 266.054 250.897C264.43 252.705 262.179 253.59 259.301 253.59C256.386 253.59 254.098 252.705 252.475 250.934C250.814 249.163 250.003 246.727 250.003 243.554C250.003 240.454 250.814 237.982 252.512 236.137C254.172 234.329 256.46 233.407 259.338 233.407ZM259.264 236.063C257.419 236.063 255.943 236.728 254.873 238.056C253.766 239.421 253.25 241.229 253.25 243.48C253.25 245.842 253.766 247.65 254.836 248.978C255.906 250.306 257.419 250.934 259.338 250.934C261.183 250.934 262.622 250.269 263.655 248.941C264.688 247.613 265.242 245.805 265.242 243.443C265.242 241.192 264.688 239.384 263.618 238.056C262.548 236.728 261.109 236.063 259.264 236.063Z" fill="#FFFBEF" fill-opacity="0.5"/>
<path d="M275.139 233.96L275.102 236.765C275.95 235.621 276.836 234.809 277.795 234.292C278.755 233.776 279.936 233.517 281.301 233.517C283.921 233.517 285.692 234.588 286.614 236.801C288.238 234.588 290.341 233.481 292.924 233.481C294.88 233.481 296.355 233.997 297.389 235.104C298.422 236.211 298.938 237.724 298.938 239.716V253.037H295.802V241.045C295.802 239.458 295.544 238.277 295.064 237.466C294.547 236.654 293.551 236.285 292.001 236.285C288.754 236.285 287.131 238.24 287.131 242.226V253.037H283.994V240.823C283.994 239.347 283.736 238.24 283.256 237.466C282.777 236.691 281.854 236.322 280.489 236.322C278.533 236.322 277.168 236.912 276.43 238.093C275.692 239.274 275.323 240.897 275.323 242.927V253H272.187V233.96H275.139Z" fill="#FFFBEF" fill-opacity="0.5"/>
<path d="M311.984 233.407C314.862 233.407 317.076 234.292 318.699 236.063C320.286 237.798 321.098 240.233 321.098 243.369C321.098 246.617 320.286 249.126 318.699 250.897C317.076 252.705 314.825 253.59 311.947 253.59C309.032 253.59 306.744 252.705 305.12 250.934C303.46 249.163 302.648 246.727 302.648 243.554C302.648 240.454 303.46 237.982 305.157 236.137C306.818 234.329 309.105 233.407 311.984 233.407ZM311.91 236.063C310.065 236.063 308.589 236.728 307.519 238.056C306.412 239.421 305.895 241.229 305.895 243.48C305.895 245.842 306.412 247.65 307.482 248.978C308.552 250.306 310.065 250.934 311.984 250.934C313.829 250.934 315.268 250.269 316.301 248.941C317.334 247.613 317.887 245.805 317.887 243.443C317.887 241.192 317.334 239.384 316.264 238.056C315.194 236.728 313.755 236.063 311.91 236.063Z" fill="#FFFBEF" fill-opacity="0.5"/>
<path d="M338.965 239.495H335.828C335.607 237.207 334.057 236.027 331.179 236.027C329.961 236.027 329.002 236.285 328.338 236.728C327.637 237.207 327.305 237.835 327.305 238.609C327.305 238.831 327.305 239.052 327.378 239.274C327.415 239.495 327.489 239.68 327.637 239.827C327.784 239.975 327.895 240.122 328.006 240.233C328.116 240.381 328.301 240.491 328.559 240.602C328.817 240.713 329.002 240.787 329.15 240.86C329.297 240.934 329.519 241.045 329.888 241.119C330.257 241.192 330.515 241.266 330.662 241.303C330.81 241.34 331.068 241.414 331.511 241.488C331.954 241.598 332.212 241.672 332.36 241.672C333.245 241.893 333.946 242.041 334.389 242.152C334.832 242.299 335.459 242.521 336.271 242.853C337.083 243.185 337.673 243.517 338.116 243.886C338.522 244.255 338.891 244.735 339.223 245.362C339.555 245.989 339.74 246.69 339.74 247.465C339.74 249.31 339.002 250.823 337.562 251.93C336.123 253.037 334.205 253.59 331.843 253.59C329.26 253.59 327.268 253.037 325.866 251.893C324.463 250.786 323.725 249.126 323.652 246.986H326.751C326.899 249.679 328.633 251.007 331.917 251.007C333.319 251.007 334.426 250.749 335.275 250.159C336.123 249.568 336.566 248.794 336.566 247.834C336.566 247.207 336.345 246.69 335.902 246.248C335.459 245.842 334.943 245.546 334.426 245.362C333.873 245.177 333.098 244.956 332.101 244.698C331.954 244.698 331.843 244.661 331.769 244.624C331.548 244.587 331.068 244.476 330.33 244.329C329.592 244.181 329.076 244.034 328.781 243.923C328.448 243.849 327.969 243.702 327.378 243.48C326.788 243.259 326.345 243.037 326.05 242.816C325.755 242.595 325.423 242.299 325.054 241.93C324.685 241.561 324.463 241.155 324.316 240.676C324.168 240.196 324.094 239.643 324.094 239.015C324.094 237.318 324.722 235.953 326.05 234.92C327.378 233.923 329.15 233.407 331.363 233.407C333.577 233.407 335.422 233.96 336.825 234.993C338.227 236.063 338.965 237.576 338.965 239.495Z" fill="#FFFBEF" fill-opacity="0.5"/>
<path d="M370.414 250.491V252.963C369.75 253.184 369.049 253.332 368.274 253.332C366.466 253.332 365.544 252.373 365.507 250.528C363.699 252.52 361.411 253.553 358.607 253.553C356.725 253.553 355.249 253.074 354.142 252.114C353.035 251.155 352.518 249.827 352.518 248.166C352.518 244.772 354.769 242.779 359.271 242.226C359.566 242.152 359.972 242.115 360.562 242.078C362.702 241.82 363.994 241.524 364.51 241.229C365.064 240.823 365.359 240.159 365.359 239.2C365.359 237.097 363.92 236.063 361.042 236.063C359.566 236.063 358.422 236.359 357.684 236.949C356.909 237.539 356.466 238.536 356.319 239.938H353.256C353.293 237.872 354.031 236.285 355.433 235.178C356.835 234.034 358.754 233.481 361.226 233.481C363.883 233.481 365.876 234.071 367.204 235.325C367.61 235.694 367.905 236.211 368.126 236.875C368.311 237.503 368.422 238.019 368.459 238.425C368.459 238.831 368.495 239.458 368.495 240.27C368.495 241.192 368.459 242.595 368.422 244.476C368.348 246.395 368.348 247.797 368.348 248.72C368.348 249.421 368.422 249.901 368.606 250.196C368.791 250.491 369.123 250.602 369.639 250.602C369.824 250.602 370.082 250.565 370.414 250.491ZM365.359 243.148C365.138 243.296 364.879 243.443 364.658 243.591C364.4 243.702 364.068 243.812 363.699 243.886C363.33 243.96 363.071 243.997 362.924 244.034C362.776 244.07 362.481 244.107 361.964 244.181C361.448 244.255 361.153 244.292 361.153 244.292C360.378 244.366 359.861 244.439 359.64 244.476C359.418 244.513 358.976 244.624 358.311 244.808C357.647 244.956 357.204 245.177 356.946 245.399C356.651 245.62 356.393 245.915 356.134 246.358C355.876 246.801 355.765 247.318 355.765 247.908C355.765 248.867 356.097 249.642 356.762 250.233C357.426 250.786 358.385 251.081 359.566 251.081C361.042 251.081 362.407 250.638 363.588 249.753C364.769 248.867 365.359 247.797 365.359 246.617V243.148Z" fill="#FFFBEF" fill-opacity="0.5"/>
<path d="M397.772 239.495H394.636C394.414 237.207 392.865 236.027 389.986 236.027C388.769 236.027 387.809 236.285 387.145 236.728C386.444 237.207 386.112 237.835 386.112 238.609C386.112 238.831 386.112 239.052 386.186 239.274C386.223 239.495 386.297 239.68 386.444 239.827C386.592 239.975 386.702 240.122 386.813 240.233C386.924 240.381 387.108 240.491 387.367 240.602C387.625 240.713 387.809 240.787 387.957 240.86C388.105 240.934 388.326 241.045 388.695 241.119C389.064 241.192 389.322 241.266 389.47 241.303C389.617 241.34 389.876 241.414 390.319 241.488C390.761 241.598 391.02 241.672 391.167 241.672C392.053 241.893 392.754 242.041 393.197 242.152C393.639 242.299 394.267 242.521 395.078 242.853C395.89 243.185 396.481 243.517 396.923 243.886C397.329 244.255 397.698 244.735 398.03 245.362C398.362 245.989 398.547 246.69 398.547 247.465C398.547 249.31 397.809 250.823 396.37 251.93C394.931 253.037 393.012 253.59 390.651 253.59C388.068 253.59 386.075 253.037 384.673 251.893C383.271 250.786 382.533 249.126 382.459 246.986H385.559C385.706 249.679 387.44 251.007 390.724 251.007C392.127 251.007 393.234 250.749 394.082 250.159C394.931 249.568 395.374 248.794 395.374 247.834C395.374 247.207 395.152 246.69 394.709 246.248C394.267 245.842 393.75 245.546 393.234 245.362C392.68 245.177 391.905 244.956 390.909 244.698C390.761 244.698 390.651 244.661 390.577 244.624C390.355 244.587 389.876 244.476 389.138 244.329C388.4 244.181 387.883 244.034 387.588 243.923C387.256 243.849 386.776 243.702 386.186 243.48C385.595 243.259 385.153 243.037 384.858 242.816C384.562 242.595 384.23 242.299 383.861 241.93C383.492 241.561 383.271 241.155 383.123 240.676C382.976 240.196 382.902 239.643 382.902 239.015C382.902 237.318 383.529 235.953 384.858 234.92C386.186 233.923 387.957 233.407 390.171 233.407C392.385 233.407 394.23 233.96 395.632 234.993C397.034 236.063 397.772 237.576 397.772 239.495Z" fill="#FFFBEF" fill-opacity="0.5"/>
<path d="M417.882 233.96L417.845 253H414.93V250.011C413.306 252.373 411.129 253.517 408.362 253.517C406.369 253.517 404.783 252.963 403.676 251.856C402.569 250.749 402.015 249.163 402.015 247.059V233.96H405.152V246.211C405.152 247.723 405.447 248.867 406.037 249.642C406.628 250.417 407.661 250.786 409.174 250.786C412.864 250.786 414.746 248.498 414.746 243.923V233.96H417.882Z" fill="#FFFBEF" fill-opacity="0.5"/>
<path d="M439.455 250.491V252.963C438.791 253.184 438.09 253.332 437.315 253.332C435.507 253.332 434.585 252.373 434.548 250.528C432.74 252.52 430.452 253.553 427.648 253.553C425.766 253.553 424.29 253.074 423.183 252.114C422.076 251.155 421.559 249.827 421.559 248.166C421.559 244.772 423.81 242.779 428.312 242.226C428.607 242.152 429.013 242.115 429.603 242.078C431.743 241.82 433.035 241.524 433.551 241.229C434.105 240.823 434.4 240.159 434.4 239.2C434.4 237.097 432.961 236.063 430.083 236.063C428.607 236.063 427.463 236.359 426.725 236.949C425.95 237.539 425.508 238.536 425.36 239.938H422.297C422.334 237.872 423.072 236.285 424.474 235.178C425.877 234.034 427.795 233.481 430.267 233.481C432.924 233.481 434.917 234.071 436.245 235.325C436.651 235.694 436.946 236.211 437.168 236.875C437.352 237.503 437.463 238.019 437.5 238.425C437.5 238.831 437.537 239.458 437.537 240.27C437.537 241.192 437.5 242.595 437.463 244.476C437.389 246.395 437.389 247.797 437.389 248.72C437.389 249.421 437.463 249.901 437.647 250.196C437.832 250.491 438.164 250.602 438.68 250.602C438.865 250.602 439.123 250.565 439.455 250.491ZM434.4 243.148C434.179 243.296 433.92 243.443 433.699 243.591C433.441 243.702 433.109 243.812 432.74 243.886C432.371 243.96 432.112 243.997 431.965 244.034C431.817 244.07 431.522 244.107 431.005 244.181C430.489 244.255 430.194 244.292 430.194 244.292C429.419 244.366 428.902 244.439 428.681 244.476C428.459 244.513 428.017 244.624 427.352 244.808C426.688 244.956 426.246 245.177 425.987 245.399C425.692 245.62 425.434 245.915 425.175 246.358C424.917 246.801 424.806 247.318 424.806 247.908C424.806 248.867 425.139 249.642 425.803 250.233C426.467 250.786 427.426 251.081 428.607 251.081C430.083 251.081 431.448 250.638 432.629 249.753C433.81 248.867 434.4 247.797 434.4 246.617V243.148Z" fill="#FFFBEF" fill-opacity="0.5"/>
<path d="M455.633 233.96V236.654C456.998 234.477 459.138 233.37 462.053 233.37C464.71 233.37 466.813 234.292 468.363 236.063C469.913 237.872 470.724 240.307 470.724 243.369C470.724 246.469 469.95 248.904 468.4 250.749C466.85 252.594 464.784 253.48 462.201 253.48C459.47 253.48 457.33 252.447 455.817 250.343V260.343H452.681V233.96H455.633ZM461.574 235.99C459.729 235.99 458.29 236.654 457.256 237.982C456.223 239.311 455.707 241.119 455.707 243.406C455.707 245.731 456.223 247.539 457.293 248.867C458.363 250.196 459.839 250.86 461.684 250.86C463.455 250.86 464.894 250.196 465.928 248.867C466.961 247.539 467.477 245.731 467.477 243.443C467.477 241.119 466.924 239.311 465.891 237.982C464.858 236.654 463.418 235.99 461.574 235.99Z" fill="#FFFBEF" fill-opacity="0.5"/>
<path d="M484.479 233.517L484.442 236.801C484.221 236.765 483.963 236.765 483.631 236.765C482.634 236.765 481.749 236.912 481.011 237.207C480.273 237.503 479.719 237.908 479.277 238.388C478.834 238.905 478.502 239.495 478.207 240.233C477.948 240.971 477.764 241.709 477.69 242.447C477.616 243.185 477.579 244.034 477.579 244.956V253H474.443V233.96H477.432V238.056C478.686 235.03 481.011 233.517 484.479 233.517Z" fill="#FFFBEF" fill-opacity="0.5"/>
<path d="M494.532 233.407C497.41 233.407 499.624 234.292 501.247 236.063C502.834 237.798 503.646 240.233 503.646 243.369C503.646 246.617 502.834 249.126 501.247 250.897C499.624 252.705 497.373 253.59 494.495 253.59C491.58 253.59 489.292 252.705 487.668 250.934C486.008 249.163 485.196 246.727 485.196 243.554C485.196 240.454 486.008 237.982 487.705 236.137C489.366 234.329 491.653 233.407 494.532 233.407ZM494.458 236.063C492.613 236.063 491.137 236.728 490.067 238.056C488.96 239.421 488.443 241.229 488.443 243.48C488.443 245.842 488.96 247.65 490.03 248.978C491.1 250.306 492.613 250.934 494.532 250.934C496.377 250.934 497.816 250.269 498.849 248.941C499.882 247.613 500.435 245.805 500.435 243.443C500.435 241.192 499.882 239.384 498.812 238.056C497.742 236.728 496.303 236.063 494.458 236.063Z" fill="#FFFBEF" fill-opacity="0.5"/>
<path d="M524.538 226.728V253H521.586V250.196C520.369 252.41 518.266 253.517 515.314 253.517C512.583 253.517 510.443 252.631 508.856 250.823C507.27 249.015 506.495 246.543 506.495 243.443C506.495 240.565 507.233 238.204 508.709 236.285C510.185 234.366 512.362 233.407 515.166 233.407C517.897 233.407 519.963 234.44 521.402 236.506V226.728H524.538ZM515.572 236.1C513.764 236.1 512.325 236.765 511.292 238.056C510.259 239.384 509.742 241.155 509.742 243.369C509.742 245.694 510.259 247.539 511.329 248.904C512.399 250.269 513.838 250.934 515.646 250.934C517.454 250.934 518.893 250.306 519.926 248.978C520.959 247.65 521.476 245.842 521.476 243.48C521.476 241.414 520.959 239.643 520 238.24C519.04 236.838 517.564 236.1 515.572 236.1Z" fill="#FFFBEF" fill-opacity="0.5"/>
<path d="M545.046 233.96L545.009 253H542.094V250.011C540.47 252.373 538.293 253.517 535.526 253.517C533.533 253.517 531.947 252.963 530.84 251.856C529.733 250.749 529.179 249.163 529.179 247.059V233.96H532.316V246.211C532.316 247.723 532.611 248.867 533.201 249.642C533.792 250.417 534.825 250.786 536.338 250.786C540.028 250.786 541.909 248.498 541.909 243.923V233.96H545.046Z" fill="#FFFBEF" fill-opacity="0.5"/>
<path d="M557.911 233.96V236.543H554.11V247.65C554.11 248.277 554.11 248.683 554.11 248.867C554.11 249.089 554.184 249.347 554.332 249.679C554.443 250.011 554.664 250.233 554.959 250.306C555.254 250.417 555.66 250.454 556.214 250.454C556.656 250.454 557.247 250.417 557.911 250.343V253.037C557.026 253.148 556.214 253.184 555.513 253.184C554.627 253.184 553.889 253.111 553.299 252.889C552.708 252.705 552.229 252.483 551.933 252.225C551.638 252.004 551.417 251.561 551.269 250.934C551.122 250.306 551.011 249.79 551.011 249.347C550.974 248.904 550.974 248.203 550.974 247.17V236.543H547.764V233.96H550.974V228.315H554.11V233.96H557.911Z" fill="#FFFBEF" fill-opacity="0.5"/>
<path d="M569.734 233.407C572.613 233.407 574.826 234.292 576.45 236.063C578.037 237.798 578.848 240.233 578.848 243.369C578.848 246.617 578.037 249.126 576.45 250.897C574.826 252.705 572.576 253.59 569.698 253.59C566.783 253.59 564.495 252.705 562.871 250.934C561.211 249.163 560.399 246.727 560.399 243.554C560.399 240.454 561.211 237.982 562.908 236.137C564.569 234.329 566.856 233.407 569.734 233.407ZM569.661 236.063C567.816 236.063 566.34 236.728 565.27 238.056C564.163 239.421 563.646 241.229 563.646 243.48C563.646 245.842 564.163 247.65 565.233 248.978C566.303 250.306 567.816 250.934 569.734 250.934C571.579 250.934 573.018 250.269 574.052 248.941C575.085 247.613 575.638 245.805 575.638 243.443C575.638 241.192 575.085 239.384 574.015 238.056C572.945 236.728 571.506 236.063 569.661 236.063Z" fill="#FFFBEF" fill-opacity="0.5"/>
<path d="M592.509 233.517L592.472 236.801C592.251 236.765 591.992 236.765 591.66 236.765C590.664 236.765 589.779 236.912 589.041 237.207C588.303 237.503 587.749 237.908 587.306 238.388C586.864 238.905 586.532 239.495 586.236 240.233C585.978 240.971 585.794 241.709 585.72 242.447C585.646 243.185 585.609 244.034 585.609 244.956V253H582.473V233.96H585.461V238.056C586.716 235.03 589.041 233.517 592.509 233.517Z" fill="#FFFBEF" fill-opacity="0.5"/>
<path d="M611.734 250.491V252.963C611.069 253.184 610.368 253.332 609.594 253.332C607.785 253.332 606.863 252.373 606.826 250.528C605.018 252.52 602.73 253.553 599.926 253.553C598.044 253.553 596.568 253.074 595.461 252.114C594.354 251.155 593.838 249.827 593.838 248.166C593.838 244.772 596.089 242.779 600.59 242.226C600.885 242.152 601.291 242.115 601.882 242.078C604.022 241.82 605.313 241.524 605.83 241.229C606.383 240.823 606.679 240.159 606.679 239.2C606.679 237.097 605.239 236.063 602.361 236.063C600.885 236.063 599.742 236.359 599.004 236.949C598.229 237.539 597.786 238.536 597.638 239.938H594.576C594.613 237.872 595.351 236.285 596.753 235.178C598.155 234.034 600.074 233.481 602.546 233.481C605.203 233.481 607.195 234.071 608.523 235.325C608.929 235.694 609.225 236.211 609.446 236.875C609.63 237.503 609.741 238.019 609.778 238.425C609.778 238.831 609.815 239.458 609.815 240.27C609.815 241.192 609.778 242.595 609.741 244.476C609.667 246.395 609.667 247.797 609.667 248.72C609.667 249.421 609.741 249.901 609.926 250.196C610.11 250.491 610.442 250.602 610.959 250.602C611.143 250.602 611.402 250.565 611.734 250.491ZM606.679 243.148C606.457 243.296 606.199 243.443 605.977 243.591C605.719 243.702 605.387 243.812 605.018 243.886C604.649 243.96 604.391 243.997 604.243 244.034C604.096 244.07 603.8 244.107 603.284 244.181C602.767 244.255 602.472 244.292 602.472 244.292C601.697 244.366 601.181 244.439 600.959 244.476C600.738 244.513 600.295 244.624 599.631 244.808C598.967 244.956 598.524 245.177 598.266 245.399C597.97 245.62 597.712 245.915 597.454 246.358C597.196 246.801 597.085 247.318 597.085 247.908C597.085 248.867 597.417 249.642 598.081 250.233C598.745 250.786 599.705 251.081 600.885 251.081C602.361 251.081 603.727 250.638 604.907 249.753C606.088 248.867 606.679 247.797 606.679 246.617V243.148Z" fill="#FFFBEF" fill-opacity="0.5"/>
<path d="M641.822 250.491V252.963C641.158 253.184 640.457 253.332 639.682 253.332C637.874 253.332 636.951 252.373 636.914 250.528C635.106 252.52 632.819 253.553 630.014 253.553C628.133 253.553 626.657 253.074 625.55 252.114C624.443 251.155 623.926 249.827 623.926 248.166C623.926 244.772 626.177 242.779 630.679 242.226C630.974 242.152 631.38 242.115 631.97 242.078C634.11 241.82 635.402 241.524 635.918 241.229C636.472 240.823 636.767 240.159 636.767 239.2C636.767 237.097 635.328 236.063 632.45 236.063C630.974 236.063 629.83 236.359 629.092 236.949C628.317 237.539 627.874 238.536 627.727 239.938H624.664C624.701 237.872 625.439 236.285 626.841 235.178C628.243 234.034 630.162 233.481 632.634 233.481C635.291 233.481 637.284 234.071 638.612 235.325C639.018 235.694 639.313 236.211 639.534 236.875C639.719 237.503 639.829 238.019 639.866 238.425C639.866 238.831 639.903 239.458 639.903 240.27C639.903 241.192 639.866 242.595 639.83 244.476C639.756 246.395 639.756 247.797 639.756 248.72C639.756 249.421 639.829 249.901 640.014 250.196C640.198 250.491 640.531 250.602 641.047 250.602C641.232 250.602 641.49 250.565 641.822 250.491ZM636.767 243.148C636.546 243.296 636.287 243.443 636.066 243.591C635.808 243.702 635.475 243.812 635.106 243.886C634.737 243.96 634.479 243.997 634.332 244.034C634.184 244.07 633.889 244.107 633.372 244.181C632.856 244.255 632.56 244.292 632.56 244.292C631.786 244.366 631.269 244.439 631.048 244.476C630.826 244.513 630.383 244.624 629.719 244.808C629.055 244.956 628.612 245.177 628.354 245.399C628.059 245.62 627.801 245.915 627.542 246.358C627.284 246.801 627.173 247.318 627.173 247.908C627.173 248.867 627.505 249.642 628.169 250.233C628.834 250.786 629.793 251.081 630.974 251.081C632.45 251.081 633.815 250.638 634.996 249.753C636.177 248.867 636.767 247.797 636.767 246.617V243.148Z" fill="#FFFBEF" fill-opacity="0.5"/>
<path d="M660.571 233.96L660.534 253H657.619V250.011C655.995 252.373 653.818 253.517 651.051 253.517C649.058 253.517 647.472 252.963 646.365 251.856C645.258 250.749 644.704 249.163 644.704 247.059V233.96H647.841V246.211C647.841 247.723 648.136 248.867 648.726 249.642C649.317 250.417 650.35 250.786 651.863 250.786C655.552 250.786 657.434 248.498 657.434 243.923V233.96H660.571Z" fill="#FFFBEF" fill-opacity="0.5"/>
<path d="M682.439 226.728V253H679.487V250.196C678.27 252.41 676.166 253.517 673.215 253.517C670.484 253.517 668.344 252.631 666.757 250.823C665.171 249.015 664.396 246.543 664.396 243.443C664.396 240.565 665.134 238.204 666.61 236.285C668.086 234.366 670.263 233.407 673.067 233.407C675.797 233.407 677.864 234.44 679.303 236.506V226.728H682.439ZM673.473 236.1C671.665 236.1 670.226 236.765 669.193 238.056C668.159 239.384 667.643 241.155 667.643 243.369C667.643 245.694 668.159 247.539 669.229 248.904C670.3 250.269 671.739 250.934 673.547 250.934C675.355 250.934 676.794 250.306 677.827 248.978C678.86 247.65 679.377 245.842 679.377 243.48C679.377 241.414 678.86 239.643 677.901 238.24C676.941 236.838 675.465 236.1 673.473 236.1Z" fill="#FFFBEF" fill-opacity="0.5"/>
<path d="M690.475 226.728V230.566H687.301V226.728H690.475ZM690.475 233.96V253H687.301V233.96H690.475Z" fill="#FFFBEF" fill-opacity="0.5"/>
<path d="M703.673 233.407C706.551 233.407 708.765 234.292 710.388 236.063C711.975 237.798 712.787 240.233 712.787 243.369C712.787 246.617 711.975 249.126 710.388 250.897C708.765 252.705 706.514 253.59 703.636 253.59C700.721 253.59 698.433 252.705 696.81 250.934C695.149 249.163 694.337 246.727 694.337 243.554C694.337 240.454 695.149 237.982 696.846 236.137C698.507 234.329 700.795 233.407 703.673 233.407ZM703.599 236.063C701.754 236.063 700.278 236.728 699.208 238.056C698.101 239.421 697.584 241.229 697.584 243.48C697.584 245.842 698.101 247.65 699.171 248.978C700.241 250.306 701.754 250.934 703.673 250.934C705.518 250.934 706.957 250.269 707.99 248.941C709.023 247.613 709.577 245.805 709.577 243.443C709.577 241.192 709.023 239.384 707.953 238.056C706.883 236.728 705.444 236.063 703.599 236.063Z" fill="#FFFBEF" fill-opacity="0.5"/>
<path d="M714.677 233.96H718.182L723.569 249.937L728.809 233.96H732.093L725.119 253H721.761L714.677 233.96Z" fill="#FFFBEF" fill-opacity="0.5"/>
<path d="M738.292 226.728V230.566H735.119V226.728H738.292ZM738.292 233.96V253H735.119V233.96H738.292Z" fill="#FFFBEF" fill-opacity="0.5"/>
<path d="M757.283 239.495H754.147C753.925 237.207 752.375 236.027 749.497 236.027C748.28 236.027 747.32 236.285 746.656 236.728C745.955 237.207 745.623 237.835 745.623 238.609C745.623 238.831 745.623 239.052 745.697 239.274C745.734 239.495 745.807 239.68 745.955 239.827C746.103 239.975 746.213 240.122 746.324 240.233C746.435 240.381 746.619 240.491 746.878 240.602C747.136 240.713 747.32 240.787 747.468 240.86C747.615 240.934 747.837 241.045 748.206 241.119C748.575 241.192 748.833 241.266 748.981 241.303C749.128 241.34 749.387 241.414 749.829 241.488C750.272 241.598 750.53 241.672 750.678 241.672C751.564 241.893 752.265 242.041 752.708 242.152C753.15 242.299 753.778 242.521 754.589 242.853C755.401 243.185 755.991 243.517 756.434 243.886C756.84 244.255 757.209 244.735 757.541 245.362C757.873 245.989 758.058 246.69 758.058 247.465C758.058 249.31 757.32 250.823 755.881 251.93C754.442 253.037 752.523 253.59 750.161 253.59C747.579 253.59 745.586 253.037 744.184 251.893C742.782 250.786 742.044 249.126 741.97 246.986H745.069C745.217 249.679 746.951 251.007 750.235 251.007C751.637 251.007 752.744 250.749 753.593 250.159C754.442 249.568 754.885 248.794 754.885 247.834C754.885 247.207 754.663 246.69 754.22 246.248C753.778 245.842 753.261 245.546 752.744 245.362C752.191 245.177 751.416 244.956 750.42 244.698C750.272 244.698 750.161 244.661 750.088 244.624C749.866 244.587 749.387 244.476 748.649 244.329C747.911 244.181 747.394 244.034 747.099 243.923C746.767 243.849 746.287 243.702 745.697 243.48C745.106 243.259 744.664 243.037 744.368 242.816C744.073 242.595 743.741 242.299 743.372 241.93C743.003 241.561 742.782 241.155 742.634 240.676C742.486 240.196 742.413 239.643 742.413 239.015C742.413 237.318 743.04 235.953 744.368 234.92C745.697 233.923 747.468 233.407 749.682 233.407C751.896 233.407 753.741 233.96 755.143 234.993C756.545 236.063 757.283 237.576 757.283 239.495Z" fill="#FFFBEF" fill-opacity="0.5"/>
<path d="M777.393 233.96L777.356 253H774.441V250.011C772.817 252.373 770.64 253.517 767.873 253.517C765.88 253.517 764.294 252.963 763.187 251.856C762.08 250.749 761.526 249.163 761.526 247.059V233.96H764.663V246.211C764.663 247.723 764.958 248.867 765.548 249.642C766.139 250.417 767.172 250.786 768.685 250.786C772.375 250.786 774.256 248.498 774.256 243.923V233.96H777.393Z" fill="#FFFBEF" fill-opacity="0.5"/>
<path d="M798.966 250.491V252.963C798.302 253.184 797.601 253.332 796.826 253.332C795.018 253.332 794.095 252.373 794.059 250.528C792.251 252.52 789.963 253.553 787.159 253.553C785.277 253.553 783.801 253.074 782.694 252.114C781.587 251.155 781.07 249.827 781.07 248.166C781.07 244.772 783.321 242.779 787.823 242.226C788.118 242.152 788.524 242.115 789.114 242.078C791.254 241.82 792.546 241.524 793.062 241.229C793.616 240.823 793.911 240.159 793.911 239.2C793.911 237.097 792.472 236.063 789.594 236.063C788.118 236.063 786.974 236.359 786.236 236.949C785.461 237.539 785.018 238.536 784.871 239.938H781.808C781.845 237.872 782.583 236.285 783.985 235.178C785.387 234.034 787.306 233.481 789.778 233.481C792.435 233.481 794.428 234.071 795.756 235.325C796.162 235.694 796.457 236.211 796.678 236.875C796.863 237.503 796.974 238.019 797.01 238.425C797.01 238.831 797.047 239.458 797.047 240.27C797.047 241.192 797.011 242.595 796.974 244.476C796.9 246.395 796.9 247.797 796.9 248.72C796.9 249.421 796.974 249.901 797.158 250.196C797.343 250.491 797.675 250.602 798.191 250.602C798.376 250.602 798.634 250.565 798.966 250.491ZM793.911 243.148C793.69 243.296 793.431 243.443 793.21 243.591C792.952 243.702 792.62 243.812 792.251 243.886C791.882 243.96 791.623 243.997 791.476 244.034C791.328 244.07 791.033 244.107 790.516 244.181C790 244.255 789.705 244.292 789.705 244.292C788.93 244.366 788.413 244.439 788.192 244.476C787.97 244.513 787.528 244.624 786.863 244.808C786.199 244.956 785.756 245.177 785.498 245.399C785.203 245.62 784.945 245.915 784.686 246.358C784.428 246.801 784.317 247.318 784.317 247.908C784.317 248.867 784.649 249.642 785.314 250.233C785.978 250.786 786.937 251.081 788.118 251.081C789.594 251.081 790.959 250.638 792.14 249.753C793.321 248.867 793.911 247.797 793.911 246.617V243.148Z" fill="#FFFBEF" fill-opacity="0.5"/>
<path d="M805.243 226.728V253H802.07V226.728H805.243Z" fill="#FFFBEF" fill-opacity="0.5"/>
<path d="M814.271 226.728V234.772L813.349 246.469H811.651L810.803 234.772V226.728H814.271ZM814.456 249.273V253H810.581V249.273H814.456Z" fill="#FFFBEF" fill-opacity="0.5"/>
</svg>
