<svg width="730" height="178" viewBox="0 0 730 178" fill="none" xmlns="http://www.w3.org/2000/svg">
<path d="M239.821 97.2798C232.733 97.2798 226.596 95.8195 221.412 92.899C216.26 89.9784 212.273 85.7781 209.45 80.2979C206.661 74.785 205.266 68.1727 205.266 60.4611V60.4119C205.266 52.7003 206.678 46.1045 209.5 40.6244C212.322 35.1442 216.309 30.9603 221.461 28.0725C226.646 25.152 232.766 23.6917 239.821 23.6917C246.023 23.6917 251.487 24.9059 256.212 27.3342C260.97 29.7625 264.711 33.0769 267.435 37.2772C270.191 41.4775 271.668 46.2358 271.865 51.5518L271.914 51.9948H254.489L254.391 51.3057C253.997 48.8117 253.177 46.6295 251.93 44.7591C250.716 42.8558 249.091 41.3627 247.057 40.2798C245.022 39.1969 242.61 38.6554 239.821 38.6554C236.539 38.6554 233.684 39.525 231.256 41.2642C228.861 43.0035 227.007 45.4974 225.694 48.7461C224.381 51.962 223.725 55.8342 223.725 60.3627V60.4119C223.725 64.9732 224.381 68.8946 225.694 72.1762C227.007 75.4577 228.877 77.968 231.305 79.7073C233.734 81.4465 236.589 82.3161 239.87 82.3161C242.495 82.3161 244.825 81.8074 246.86 80.7902C248.894 79.7401 250.568 78.2634 251.88 76.3601C253.193 74.424 254.063 72.1269 254.489 69.4689L254.588 68.9767H271.963V69.5181C271.734 74.8014 270.224 79.5432 267.435 83.7435C264.678 87.9111 260.921 91.209 256.163 93.6373C251.437 96.0656 245.99 97.2798 239.821 97.2798ZM313.557 97.2798C306.403 97.2798 300.201 95.7867 294.95 92.8005C289.7 89.8143 285.647 85.5812 282.792 80.101C279.937 74.5881 278.51 68.0579 278.51 60.5104V60.4119C278.51 52.8644 279.937 46.3506 282.792 40.8705C285.68 35.3903 289.749 31.1572 295 28.171C300.25 25.1848 306.436 23.6917 313.557 23.6917C320.776 23.6917 327.011 25.1848 332.261 28.171C337.512 31.1572 341.548 35.3903 344.37 40.8705C347.225 46.3506 348.652 52.8644 348.652 60.4119V60.5104C348.652 68.0579 347.225 74.5881 344.37 80.101C341.548 85.5812 337.512 89.8143 332.261 92.8005C327.044 95.7867 320.809 97.2798 313.557 97.2798ZM313.557 82.3161C317.035 82.3161 320.005 81.4301 322.466 79.658C324.96 77.8532 326.88 75.3264 328.225 72.0777C329.57 68.7962 330.243 64.9404 330.243 60.5104V60.4119C330.243 55.9491 329.554 52.0933 328.176 48.8446C326.83 45.5959 324.911 43.0855 322.417 41.3135C319.923 39.5415 316.969 38.6554 313.557 38.6554C310.242 38.6554 307.322 39.5415 304.795 41.3135C302.301 43.0527 300.365 45.5466 298.987 48.7953C297.641 52.044 296.969 55.9162 296.969 60.4119V60.5104C296.969 64.9732 297.641 68.8454 298.987 72.1269C300.365 75.3756 302.301 77.886 304.795 79.658C307.289 81.4301 310.209 82.3161 313.557 82.3161ZM357.463 96V24.9715H388.228C393.97 24.9715 398.843 25.8903 402.847 27.728C406.85 29.5656 409.902 32.2401 412.002 35.7513C414.102 39.2625 415.152 43.5285 415.152 48.5492V48.6477C415.152 53.209 414.053 57.3109 411.855 60.9534C409.656 64.5959 406.719 67.2375 403.044 68.8782L417.22 96H396.891L384.733 71.5363C384.634 71.5363 384.503 71.5363 384.339 71.5363C384.208 71.5363 384.06 71.5363 383.896 71.5363H375.528V96H357.463ZM375.528 58.443H386.209C389.425 58.443 391.969 57.557 393.839 55.785C395.742 53.9801 396.694 51.5846 396.694 48.5984V48.5C396.694 45.5138 395.726 43.1183 393.79 41.3135C391.854 39.5086 389.294 38.6062 386.111 38.6062H375.528V58.443ZM440.699 96V39.4922H421.108V24.9715H478.305V39.4922H458.764V96H440.699ZM485.935 96V24.9715H534.616V39.4922H504V53.5207H532.795V67.1062H504V81.4793H534.616V96H485.935ZM543.575 96V84.4819L577.342 39.8368V39.4922H544.116V24.9715H598.557V36.4404L564.937 81.1347V81.4793H599.64V96H543.575ZM607.958 96V84.4819L641.725 39.8368V39.4922H608.5V24.9715H662.94V36.4404L629.321 81.1347V81.4793H664.023V96H607.958ZM673.572 96V24.9715H691.637V96H673.572Z" fill="#FFFBEF"/>
<path d="M221.69 151.574C218.459 151.574 215.647 150.853 213.255 149.412C210.879 147.971 209.042 145.927 207.743 143.282C206.444 140.621 205.795 137.477 205.795 133.849V133.825C205.795 130.198 206.444 127.062 207.743 124.417C209.042 121.771 210.879 119.736 213.255 118.31C215.631 116.869 218.443 116.148 221.69 116.148C224.209 116.148 226.482 116.631 228.509 117.597C230.537 118.564 232.208 119.902 233.523 121.613C234.837 123.324 235.669 125.311 236.017 127.577L236.041 127.814H230.743L230.6 127.339C230.236 125.993 229.642 124.836 228.818 123.87C228.01 122.904 227.004 122.167 225.801 121.66C224.613 121.138 223.242 120.876 221.69 120.876C219.568 120.876 217.722 121.407 216.154 122.468C214.602 123.529 213.398 125.026 212.542 126.959C211.687 128.891 211.259 131.18 211.259 133.825V133.849C211.259 136.479 211.687 138.775 212.542 140.74C213.398 142.688 214.61 144.193 216.178 145.254C217.746 146.315 219.583 146.846 221.69 146.846C223.211 146.846 224.565 146.592 225.753 146.086C226.957 145.563 227.979 144.803 228.818 143.805C229.658 142.807 230.283 141.587 230.695 140.146L230.766 139.908H236.065L236.017 140.146C235.669 142.427 234.837 144.43 233.523 146.157C232.224 147.868 230.56 149.198 228.533 150.149C226.505 151.099 224.224 151.574 221.69 151.574ZM240.912 151.004V116.718H254.241C256.57 116.718 258.589 117.146 260.3 118.001C262.011 118.857 263.325 120.068 264.244 121.637C265.179 123.205 265.646 125.066 265.646 127.22V127.268C265.646 129.596 265.052 131.632 263.864 133.374C262.692 135.116 261.076 136.336 259.017 137.033L266.691 151.004H260.538L253.552 137.865C253.489 137.865 253.433 137.865 253.386 137.865C253.354 137.865 253.307 137.865 253.243 137.865H246.234V151.004H240.912ZM246.234 133.469H253.718C255.762 133.469 257.346 132.938 258.47 131.877C259.595 130.8 260.157 129.279 260.157 127.315V127.268C260.157 125.383 259.563 123.902 258.375 122.825C257.203 121.732 255.596 121.185 253.552 121.185H246.234V133.469ZM270.802 151.004V116.718H292.566V121.328H276.124V131.307H291.687V135.774H276.124V146.394H292.566V151.004H270.802ZM295.536 151.004L308.01 116.718H312.334V122.397H310.837L301.143 151.004H295.536ZM301.595 141.738L303.139 137.461H318.631L320.175 141.738H301.595ZM320.626 151.004L310.956 122.397V116.718H313.784L326.234 151.004H320.626ZM333.789 151.004V121.328H323.311V116.718H349.614V121.328H339.135V151.004H333.789ZM353.962 151.004V116.718H359.284V151.004H353.962ZM375.274 151.004L363.062 116.718H368.812L378.149 145.064H378.268L387.606 116.718H393.379L381.167 151.004H375.274ZM397.157 151.004V116.718H418.921V121.328H402.479V131.307H418.042V135.774H402.479V146.394H418.921V151.004H397.157ZM434.27 151.004V116.718H440.424L451.52 144.066H451.663L462.758 116.718H468.936V151.004H464.065V125.723H461.618L467.178 117.669L453.563 151.004H449.619L436.028 117.669L441.588 125.723H439.141V151.004H434.27ZM490.13 151.574C486.819 151.574 483.96 150.861 481.553 149.436C479.145 147.994 477.292 145.951 475.993 143.306C474.694 140.645 474.044 137.5 474.044 133.873V133.825C474.044 130.198 474.694 127.062 475.993 124.417C477.307 121.771 479.169 119.736 481.576 118.31C483.984 116.869 486.835 116.148 490.13 116.148C493.409 116.148 496.252 116.869 498.66 118.31C501.067 119.752 502.921 121.795 504.219 124.44C505.518 127.07 506.168 130.198 506.168 133.825V133.873C506.168 137.5 505.518 140.637 504.219 143.282C502.921 145.927 501.067 147.971 498.66 149.412C496.268 150.853 493.425 151.574 490.13 151.574ZM490.13 146.846C492.316 146.846 494.201 146.315 495.785 145.254C497.369 144.193 498.588 142.688 499.444 140.74C500.299 138.791 500.727 136.502 500.727 133.873V133.825C500.727 131.18 500.291 128.891 499.42 126.959C498.565 125.011 497.337 123.514 495.737 122.468C494.153 121.407 492.284 120.876 490.13 120.876C487.96 120.876 486.075 121.399 484.475 122.444C482.891 123.49 481.663 124.987 480.792 126.935C479.921 128.868 479.485 131.164 479.485 133.825V133.873C479.485 136.518 479.921 138.815 480.792 140.763C481.663 142.712 482.891 144.216 484.475 145.278C486.059 146.323 487.944 146.846 490.13 146.846ZM517.691 151.004V121.328H507.213V116.718H533.516V121.328H523.037V151.004H517.691ZM537.864 151.004V116.718H543.186V151.004H537.864ZM564.356 151.574C561.045 151.574 558.186 150.861 555.779 149.436C553.371 147.994 551.518 145.951 550.219 143.306C548.92 140.645 548.27 137.5 548.27 133.873V133.825C548.27 130.198 548.92 127.062 550.219 124.417C551.533 121.771 553.395 119.736 555.802 118.31C558.21 116.869 561.061 116.148 564.356 116.148C567.635 116.148 570.478 116.869 572.886 118.31C575.293 119.752 577.147 121.795 578.446 124.44C579.744 127.07 580.394 130.198 580.394 133.825V133.873C580.394 137.5 579.744 140.637 578.446 143.282C577.147 145.927 575.293 147.971 572.886 149.412C570.494 150.853 567.651 151.574 564.356 151.574ZM564.356 146.846C566.542 146.846 568.427 146.315 570.011 145.254C571.595 144.193 572.814 142.688 573.67 140.74C574.525 138.791 574.953 136.502 574.953 133.873V133.825C574.953 131.18 574.517 128.891 573.646 126.959C572.791 125.011 571.563 123.514 569.963 122.468C568.379 121.407 566.51 120.876 564.356 120.876C562.186 120.876 560.301 121.399 558.701 122.444C557.117 123.49 555.889 124.987 555.018 126.935C554.147 128.868 553.711 131.164 553.711 133.825V133.873C553.711 136.518 554.147 138.815 555.018 140.763C555.889 142.712 557.117 144.216 558.701 145.278C560.285 146.323 562.17 146.846 564.356 146.846ZM585.478 151.004V116.718H590.397L611.496 147.012L605.865 142.023H608.169V116.718H613.468V151.004H608.549L587.451 120.662L593.082 125.628H590.777V151.004H585.478Z" fill="#FFFBEF"/>
<path d="M717.224 40.8146C715.702 40.8146 714.497 40.3798 713.609 39.5104C712.72 38.6315 712.276 37.3982 712.276 35.8105V35.7963C712.276 34.2087 712.72 32.9801 713.609 32.1106C714.506 31.2318 715.711 30.7923 717.224 30.7923C718.112 30.7923 718.892 30.9671 719.563 31.3168C720.243 31.6665 720.782 32.139 721.179 32.7344C721.575 33.3298 721.783 34.0008 721.802 34.7473L721.816 34.804H719.336L719.307 34.7332C719.232 34.2417 719.014 33.8401 718.655 33.5282C718.296 33.2069 717.819 33.0462 717.224 33.0462C716.524 33.0462 715.962 33.2872 715.537 33.7692C715.121 34.2417 714.913 34.9175 714.913 35.7963C714.913 36.6752 715.121 37.3604 715.537 37.8518C715.962 38.3338 716.529 38.5748 717.238 38.5748C717.795 38.5748 718.258 38.4236 718.627 38.1212C719.005 37.8093 719.236 37.3935 719.322 36.8737L719.336 36.8028H721.816V36.8737C721.788 37.6203 721.575 38.2913 721.179 38.8867C720.782 39.482 720.243 39.9546 719.563 40.3042C718.882 40.6445 718.102 40.8146 717.224 40.8146ZM726.253 35.7396C726.253 34.4638 726.022 33.2731 725.559 32.1674C725.096 31.0522 724.444 30.0788 723.603 29.2471C722.771 28.4155 721.802 27.7681 720.697 27.3051C719.591 26.8325 718.395 26.5963 717.11 26.5963H716.997C715.711 26.5963 714.516 26.8325 713.41 27.3051C712.305 27.7681 711.331 28.4155 710.49 29.2471C709.658 30.0788 709.011 31.0522 708.548 32.1674C708.085 33.2731 707.853 34.4638 707.853 35.7396V35.8672C707.853 37.143 708.085 38.3385 708.548 39.4537C709.011 40.5594 709.658 41.5281 710.49 42.3597C711.331 43.1914 712.305 43.8435 713.41 44.316C714.516 44.7791 715.711 45.0106 716.997 45.0106H717.11C718.395 45.0106 719.591 44.7791 720.697 44.316C721.802 43.8435 722.771 43.1914 723.603 42.3597C724.444 41.5281 725.096 40.5594 725.559 39.4537C726.022 38.3385 726.253 37.143 726.253 35.8672V35.7396ZM728.309 35.7396V35.8672C728.309 37.4266 728.021 38.8867 727.444 40.2475C726.868 41.6084 726.069 42.7992 725.049 43.8198C724.037 44.831 722.851 45.6202 721.49 46.1872C720.139 46.7637 718.679 47.0519 717.11 47.0519H716.997C715.428 47.0519 713.963 46.7637 712.602 46.1872C711.251 45.6202 710.065 44.831 709.044 43.8198C708.033 42.7992 707.239 41.6084 706.663 40.2475C706.086 38.8867 705.798 37.4266 705.798 35.8672V35.7396C705.798 34.1709 706.086 32.7108 706.663 31.3593C707.239 29.9985 708.033 28.8124 709.044 27.8012C710.065 26.7806 711.251 25.9867 712.602 25.4197C713.963 24.8432 715.428 24.555 716.997 24.555H717.11C718.679 24.555 720.139 24.8432 721.49 25.4197C722.851 25.9867 724.037 26.7806 725.049 27.8012C726.069 28.8124 726.868 29.9985 727.444 31.3593C728.021 32.7108 728.309 34.1709 728.309 35.7396Z" fill="#FFFBEF"/>
<path d="M75.988 176.789C75.0371 177.74 73.377 177.74 72.4261 176.789L59.8109 164.173C59.0193 163.382 58.4751 162.442 58.1783 161.354L40.9623 93.0831C40.6655 92.1927 40.2202 92.0442 39.6266 92.6379L16.3255 115.939C15.3746 116.89 13.7145 116.89 12.7636 115.939L0.742073 103.917C0.24736 103.423 2.02725e-06 102.878 0 102.285C-9.21473e-07 101.493 0.247355 100.85 0.742069 100.355L45.2514 55.8461C45.941 55.1565 46.0049 56.6276 46.8227 57.1591C46.9527 57.2436 47.077 57.3451 47.1957 57.4638L59.8109 70.079C60.6024 70.8705 60.641 69.9235 60.9378 71.0118L77.9174 141.911C78.2142 142.802 78.6595 142.95 79.2531 142.357L104.632 116.978C105.548 116.062 107.278 116.062 108.194 116.978L120.215 128.999C120.71 129.494 120.957 130.137 120.957 130.929C120.957 131.522 120.71 132.067 120.215 132.561L75.988 176.789Z" fill="#FFFBEF"/>
<path d="M120.24 132.537C119.289 133.488 117.629 133.488 116.678 132.537L104.063 119.922C103.271 119.13 103.415 120.757 103.118 119.669L85.214 48.8314C84.9172 47.9409 84.4719 47.7925 83.8783 48.3862L59.8109 72.3806C59.2894 72.902 58.3931 72.5868 57.7447 72.2356C57.4815 72.093 57.2384 71.9102 57.0154 71.6872L44.9938 59.6656C44.4991 59.1709 44.2517 58.6267 44.2517 58.0331C44.2517 57.2415 44.4991 56.5984 44.9938 56.1037L87.8855 13.212C88.8014 12.2961 90.5315 12.2961 91.4474 13.212L104.063 25.8272C104.854 26.6188 105.398 27.5587 105.695 28.6471L122.169 97.6596C122.466 98.5501 122.911 98.6985 123.505 98.1049L148.884 72.7261C149.8 71.8102 151.53 71.8102 152.446 72.7261L164.467 84.7476C164.962 85.2423 165.209 85.8854 165.209 86.677C165.209 87.2706 164.962 87.8148 164.467 88.3095L120.24 132.537Z" fill="#FFFBEF"/>
</svg>
