<svg width="84" height="84" viewBox="0 0 84 84" fill="none" xmlns="http://www.w3.org/2000/svg">
<path d="M38.4489 83.1151C37.9677 83.5962 37.1277 83.5962 36.6466 83.1151L30.2635 76.732C29.863 76.3315 29.5876 75.8559 29.4374 75.3052L20.7263 40.7612C20.5762 40.3107 20.3509 40.2356 20.0505 40.536L8.2605 52.3259C7.77935 52.8071 6.93936 52.8071 6.45821 52.3259L0.375478 46.2432C0.12516 45.9929 1.02576e-06 45.7175 0 45.4172C-4.66253e-07 45.0167 0.125158 44.6912 0.375477 44.4409L22.8966 21.9198C23.2455 21.5709 23.2779 22.3153 23.6916 22.5842C23.7574 22.6269 23.8203 22.6783 23.8804 22.7383L30.2635 29.1214C30.664 29.522 30.6835 29.0428 30.8337 29.5935L39.4251 65.4676C39.5753 65.9182 39.8006 65.9933 40.101 65.6929L52.9423 52.8516C53.4057 52.3882 54.2812 52.3882 54.7446 52.8516L60.8273 58.9343C61.0776 59.1847 61.2028 59.5101 61.2028 59.9106C61.2028 60.211 61.0776 60.4863 60.8273 60.7366L38.4489 83.1151Z" fill="black"/>
<path d="M60.8396 60.7243C60.3585 61.2055 59.5185 61.2055 59.0373 60.7243L52.6542 54.3412C52.2537 53.9407 52.3264 54.7638 52.1762 54.2131L43.1171 18.3705C42.9669 17.9199 42.7416 17.8448 42.4412 18.1452L30.2635 30.286C29.9996 30.5499 29.5461 30.3904 29.218 30.2127C29.0848 30.1405 28.9618 30.048 28.849 29.9352L22.7662 23.8524C22.5159 23.6021 22.3908 23.3268 22.3908 23.0264C22.3908 22.6259 22.5159 22.3005 22.7662 22.0502L44.4688 0.347564C44.9323 -0.115861 45.8077 -0.115859 46.2711 0.347567L52.6542 6.73068C53.0547 7.13119 53.3301 7.60679 53.4803 8.15749L61.8159 43.0769C61.9661 43.5275 62.1914 43.6026 62.4917 43.3022L75.3331 30.4608C75.7965 29.9974 76.6719 29.9974 77.1354 30.4608L83.2181 36.5436C83.4684 36.7939 83.5936 37.1193 83.5936 37.5198C83.5936 37.8202 83.4684 38.0956 83.2181 38.3459L60.8396 60.7243Z" fill="black"/>
</svg>
