<svg width="85" height="87" viewBox="0 0 85 87" fill="none" xmlns="http://www.w3.org/2000/svg">
<path d="M60.8682 30.488C41.0456 13.3587 12.0659 39.7529 28.7643 61.0836C27.0406 42.9848 42.9848 27.9024 60.8682 30.488ZM10.7731 42.7693C4.09379 38.4601 0 31.1343 0 23.1622C0 10.3422 10.3422 0 23.1622 0C31.5653 0 39.2142 4.52471 43.308 11.7427C48.3714 13.6819 52.6806 17.1293 55.4816 21.7617C61.4068 23.9163 66.3625 28.0101 69.5944 33.289C79.0748 38.1369 85 47.8327 85 58.4981C85 74.0114 72.3954 86.616 56.7744 86.616C45.6781 86.616 35.6591 80.1521 31.1343 70.0253C25.9632 66.4702 22.0849 61.4068 20.2535 55.4816C15.8365 52.3574 12.4968 47.9404 10.7731 42.7693ZM35.8745 10.1267C32.5349 6.78707 28.0101 4.95564 23.1622 4.95564C13.1432 4.95564 4.95564 13.1432 4.95564 23.1622C4.95564 27.6869 6.57161 31.8885 9.58809 35.3359C9.48035 20.7921 21.4385 9.26489 35.8745 10.1267ZM47.8327 20.2535C29.8416 3.87833 3.33967 28.7643 19.0684 47.725C19.0684 31.8885 31.9962 19.2839 47.8327 20.2535ZM56.7744 35.2281C43.9544 35.2281 33.6122 45.5703 33.6122 58.4981C33.6122 71.3181 43.9544 81.6603 56.7744 81.6603C69.7022 81.6603 80.0444 71.3181 80.0444 58.4981C80.0444 45.5703 69.7022 35.2281 56.7744 35.2281Z" fill="white"/>
</svg>
