<svg width="98" height="74" viewBox="0 0 98 74" fill="none" xmlns="http://www.w3.org/2000/svg">
<path fill-rule="evenodd" clip-rule="evenodd" d="M33.4594 0C31.4085 0 29.5425 1.09997 28.4676 2.37277C27.3928 3.64557 26.8465 5.02015 26.3747 6.2621L24.998 9.88281H8.05846C3.64365 9.88281 0 13.5264 0 17.9413V65.8891C0 70.3039 3.64364 73.9476 8.05846 73.9476H89.3594C93.7742 73.9476 97.4178 70.3039 97.4178 65.8891V17.9413C97.4178 13.5264 93.7742 9.88281 89.3594 9.88281H72.4198L71.0432 6.2621C70.5712 5.0202 70.0027 3.64557 68.9278 2.37277C67.853 1.09997 66.0093 0 63.9584 0H33.4594ZM33.2412 5.73606C33.2932 5.73234 33.3618 5.73606 33.4594 5.73606H63.9584C64.3487 5.73606 64.2486 5.71332 64.5516 6.07188C64.8546 6.43065 65.298 7.25346 65.6932 8.29355L67.7638 13.7498C67.9671 14.2946 68.3314 14.7646 68.8082 15.0975C69.2849 15.4303 69.8517 15.6102 70.4332 15.6133H89.3594C90.6986 15.6133 91.6874 16.602 91.6874 17.9413V65.8892C91.6874 67.2284 90.6987 68.2115 89.3594 68.2115H8.05846C6.71919 68.2115 5.73046 67.2285 5.73046 65.8892V17.9413C5.73046 16.6021 6.71918 15.6133 8.05846 15.6133H26.9679C27.5522 15.6136 28.1227 15.4353 28.6028 15.1022C29.0829 14.7691 29.4497 14.2972 29.654 13.7498L31.7246 8.29355C32.1197 7.25352 32.5409 6.43067 32.8438 6.07188C33.0711 5.80277 33.0848 5.74722 33.2412 5.73606ZM48.7089 19.3571C36.2813 19.3571 26.1396 29.4988 26.1396 41.9264C26.1396 54.3539 36.2813 64.4677 48.7089 64.4677C61.1365 64.4677 71.2782 54.3539 71.2782 41.9264C71.2782 29.4988 61.1365 19.3571 48.7089 19.3571ZM83.4554 21.1703C82.5864 21.174 81.7545 21.5228 81.1427 22.1398C80.5308 22.7569 80.1892 23.5918 80.1929 24.4608C80.1951 25.3259 80.5394 26.155 81.1506 26.7673C81.7618 27.3795 82.5903 27.7252 83.4554 27.7289C83.8862 27.7308 84.3131 27.6476 84.7117 27.4843C85.1102 27.321 85.4727 27.0807 85.7783 26.7771C86.084 26.4736 86.3267 26.1128 86.4928 25.7153C86.6588 25.3178 86.7449 24.8915 86.746 24.4608C86.7478 24.0281 86.6639 23.5994 86.4992 23.1994C86.3345 22.7993 86.0922 22.4358 85.7863 22.1299C85.4804 21.824 85.1169 21.5817 84.7168 21.417C84.3168 21.2523 83.8881 21.1684 83.4554 21.1703ZM48.7089 25.0876C58.0395 25.0876 65.5477 32.5958 65.5477 41.9264C65.5477 51.257 58.0395 58.7372 48.7089 58.7372C39.3783 58.7372 31.8757 51.257 31.8757 41.9264C31.8757 32.5958 39.3783 25.0876 48.7089 25.0876Z" fill="white"/>
</svg>
