<svg width="33" height="53" viewBox="0 0 33 53" fill="none" xmlns="http://www.w3.org/2000/svg">
<path d="M23.1753 5.0542H9.18227C6.51442 5.0542 4.3501 7.21851 4.3501 9.88636V18.2732C4.3501 20.941 6.51442 23.1053 9.18227 23.1053H11.9328L15.2844 27.0131C15.7504 27.5617 16.5996 27.5617 17.0656 27.0131L20.4173 23.1053H23.1677C25.8356 23.1053 27.9999 20.941 27.9999 18.2732V9.88636C28.0075 7.21103 25.8432 5.0542 23.1753 5.0542ZM20.2369 15.0041C20.2293 15.0116 19.5079 16.0412 18.0049 17.191C17.4864 17.5818 16.8852 17.995 16.1787 18.3783C15.4724 17.9876 14.8636 17.5818 14.3526 17.191C12.8421 16.0412 12.1281 15.0116 12.1207 14.9965C11.1813 13.5688 11.1436 12.3062 12.0154 11.2541C12.5415 10.6229 13.3005 10.2471 14.1121 10.2095C14.1498 10.2095 14.1873 10.2095 14.2174 10.2095C15.1642 10.2095 15.7429 10.7055 15.9533 10.9159L16.1787 11.1489L16.4117 10.9159C16.6222 10.7055 17.2008 10.2095 18.1477 10.2095C18.1853 10.2095 18.2153 10.2095 18.2529 10.2095C19.0645 10.2396 19.8236 10.6229 20.3496 11.2541C21.2213 12.3062 21.1838 13.5688 20.2369 15.0041Z" fill="white"/>
</svg>
