<svg width="33" height="53" viewBox="0 0 33 53" fill="none" xmlns="http://www.w3.org/2000/svg">
<path d="M27.0623 0H5.29425C2.37727 0 0 2.37727 0 5.29425V46.9222C0 49.8392 2.37727 52.2164 5.29425 52.2164H27.0559C29.9729 52.2164 32.3502 49.8392 32.3502 46.9222V5.29425C32.3502 2.37727 29.9793 0 27.0623 0ZM30.0371 46.8836C30.0371 48.5413 28.6879 49.897 27.0238 49.897H5.32637C3.66871 49.897 2.31302 48.5477 2.31302 46.8836V5.31995C2.31302 3.66228 3.66228 2.3066 5.32637 2.3066H10.1901V3.61731C10.1901 4.50397 10.9097 5.22357 11.7964 5.22357H20.5602C21.4468 5.22357 22.1664 4.50397 22.1664 3.61731V2.3066H27.0238C28.6815 2.3066 30.0371 3.65586 30.0371 5.31995V46.8836Z" fill="white"/>
<path d="M22.16 17.688H10.1965C7.9156 17.688 6.06519 19.5384 6.06519 21.8193V28.9897C6.06519 31.2706 7.9156 33.121 10.1965 33.121H12.5481L15.4136 36.462C15.812 36.931 16.538 36.931 16.9364 36.462L19.802 33.121H22.1535C24.4344 33.121 26.2848 31.2706 26.2848 28.9897V21.8193C26.2913 19.532 24.4409 17.688 22.16 17.688ZM19.6478 26.1948C19.6413 26.2012 19.0245 27.0814 17.7395 28.0645C17.2962 28.3986 16.7822 28.7519 16.1782 29.0796C15.5743 28.7455 15.0538 28.3986 14.6169 28.0645C13.3255 27.0814 12.7151 26.2012 12.7087 26.1883C11.9056 24.9676 11.8734 23.8882 12.6187 22.9887C13.0685 22.449 13.7174 22.1277 14.4113 22.0956C14.4435 22.0956 14.4756 22.0956 14.5013 22.0956C15.3108 22.0956 15.8056 22.5196 15.9855 22.6995L16.1782 22.8987L16.3774 22.6995C16.5573 22.5196 17.052 22.0956 17.8616 22.0956C17.8937 22.0956 17.9194 22.0956 17.9515 22.0956C18.6454 22.1213 19.2944 22.449 19.7441 22.9887C20.4894 23.8882 20.4573 24.9676 19.6478 26.1948Z" fill="white"/>
</svg>
